<svg width="52" height="20" viewBox="0 0 52 20" fill="none" xmlns="http://www.w3.org/2000/svg">
<g clip-path="url(#clip0_179_320)">
<path d="M0.0991096 5.96189H6.19441V7.32318H0.0991096V5.96189ZM1.56925 5.02393V19.0851H0.0991096V5.02393C0.0991096 4.10256 0.247775 3.30571 0.536848 2.65826C0.82592 2.01082 1.27192 1.50449 1.87484 1.13926C2.47776 0.782336 3.22935 0.599724 4.12961 0.599724C4.58386 0.599724 4.98856 0.624626 5.36023 0.674429C5.72363 0.724232 6.02922 0.774036 6.277 0.83214L6.16137 2.11043C5.82274 2.05232 5.50063 2.00252 5.18678 1.96932C4.87293 1.92781 4.55908 1.91121 4.24523 1.91121C3.27065 1.91121 2.57687 2.18513 2.17217 2.73297C1.76747 3.28081 1.56099 4.04446 1.56099 5.03223L1.56925 5.02393Z" fill="white" stroke="white" stroke-width="0.25" stroke-miterlimit="10"/>
<path d="M10.4562 2.98199H8.96125V1.13926H10.4562V2.98199ZM10.4562 19.0851H8.96125V5.96189H10.4562V19.0851Z" fill="white" stroke="white" stroke-width="0.25" stroke-miterlimit="10"/>
<path d="M13.3221 5.96189H19.467V7.32318H13.3221V5.96189ZM13.3221 15.3498V2.07722H14.817V15.2917C14.817 16.1633 14.9987 16.8356 15.3704 17.3088C15.7338 17.7819 16.3367 18.0143 17.1626 18.0143C17.5756 18.0143 17.9473 17.9894 18.2611 17.9313C18.5832 17.8732 18.9466 17.7902 19.3596 17.674L19.5826 18.9772C19.3183 19.0519 19.054 19.1266 18.7814 19.193C18.5089 19.2594 18.2281 19.3092 17.939 19.3341C17.6499 19.359 17.3361 19.3756 16.9975 19.3756C16.1468 19.3756 15.4612 19.2013 14.9244 18.861C14.3875 18.5207 13.9911 18.0475 13.7268 17.4416C13.4625 16.8356 13.3304 16.1384 13.3304 15.3415L13.3221 15.3498Z" fill="white" stroke="white" stroke-width="0.25" stroke-miterlimit="10"/>
<path d="M29.6258 11.6395H26.3634V12.8431H29.6258V11.6395Z" fill="#9D4EDD" stroke="#9D4EDD" stroke-width="0.25" stroke-miterlimit="10"/>
<path d="M24.4473 11.6395H20.8793V12.8431H24.5464V11.6395H24.4473Z" fill="white" stroke="white" stroke-width="0.25" stroke-miterlimit="10"/>
<path d="M25.744 11.6395V12.8431V11.6395Z" stroke="#12012D" stroke-width="0.25" stroke-miterlimit="10"/>
<path d="M25.744 12.8431H24.5464V16.5202H25.744V12.8431Z" fill="white" stroke="white" stroke-width="0.25" stroke-miterlimit="10"/>
<path d="M25.744 7.74651H24.5464V11.0252H25.744V7.74651Z" fill="white" stroke="white" stroke-width="0.25" stroke-miterlimit="10"/>
<path d="M25.744 11.6395H24.5464V12.8431H25.744V11.6395Z" fill="white" stroke="white" stroke-width="0.25" stroke-miterlimit="10"/>
<path d="M40.1728 14.4783C40.1728 15.217 39.9994 15.8728 39.6442 16.4289C39.2891 16.9933 38.8183 17.425 38.2154 17.7321C37.6125 18.0392 36.9104 18.1886 36.0928 18.1886C35.3577 18.1886 34.7795 18.0475 34.3501 17.7653C33.9288 17.4831 33.6233 17.1013 33.4498 16.6115C33.2764 16.1218 33.1855 15.5823 33.1855 14.9846V11.5731H31.9136V15.2004C31.9136 16.0222 32.0457 16.7443 32.31 17.3752C32.5743 18.006 32.9956 18.4958 33.5737 18.8444C34.1518 19.2013 34.8869 19.3756 35.7789 19.3756C36.5801 19.3756 37.2903 19.2013 37.9263 18.8444C38.5623 18.4875 39.0743 18.0143 39.4708 17.4084C39.6938 17.0681 39.859 16.6862 39.9828 16.2878H39.859L40.1728 15.3664V15.1008L40.4371 16.2795H40.1728V19.1266H41.4447V11.5648H40.1728V14.47V14.4783Z" fill="#9D4EDD" stroke="#9D4EDD" stroke-width="0.25" stroke-miterlimit="10"/>
<path d="M39.9828 16.2878H40.1728V15.4079C40.1398 15.7151 40.0737 16.0056 39.9828 16.2878Z" fill="#9D4EDD" stroke="#9D4EDD" stroke-width="0.25" stroke-miterlimit="10"/>
<path d="M40.1893 15.3L40.1646 15.3664V15.4079C40.1646 15.4079 40.1811 15.3332 40.1893 15.3Z" fill="#9D4EDD" stroke="#9D4EDD" stroke-width="0.25" stroke-miterlimit="10"/>
<path d="M40.1728 15.3664L39.859 16.2878H39.9828C40.0654 16.0056 40.1315 15.7151 40.1728 15.4079V15.3664Z" fill="#9D4EDD" stroke="#9D4EDD" stroke-width="0.25" stroke-miterlimit="10"/>
<path d="M40.1728 15.1091V15.3747L40.1976 15.3083C40.1976 15.3083 40.1811 15.383 40.1728 15.4162V16.2961H40.4371L40.1728 15.1174V15.1091Z" fill="#9D4EDD" stroke="#9D4EDD" stroke-width="0.25" stroke-miterlimit="10"/>
<path d="M33.1855 7.97063H31.9136V9.73035H33.1855V7.97063Z" fill="#9D4EDD" stroke="#9D4EDD" stroke-width="0.25" stroke-miterlimit="10"/>
<path d="M41.4447 7.97063H40.1728V9.73035H41.4447V7.97063Z" fill="#9D4EDD" stroke="#9D4EDD" stroke-width="0.25" stroke-miterlimit="10"/>
<path d="M47.7382 19.4005C46.6646 19.4005 45.7808 19.2511 45.087 18.944C44.3933 18.6369 43.8564 18.2052 43.493 17.6408C43.1213 17.0764 42.8488 16.404 42.6506 15.6155L43.8234 15.3747C43.9803 15.906 44.195 16.3957 44.4676 16.8356C44.7402 17.2756 45.1283 17.6242 45.6404 17.8815C46.1525 18.1388 46.8463 18.2633 47.73 18.2633C48.6715 18.2633 49.3901 18.0807 49.8691 17.7238C50.3482 17.3586 50.5877 16.8522 50.5877 16.1965C50.5877 15.7649 50.472 15.4079 50.249 15.134C50.0261 14.8601 49.6626 14.636 49.1588 14.4617C48.655 14.2874 47.986 14.1379 47.1518 14.03C46.2268 13.8723 45.4752 13.6482 44.8971 13.366C44.3189 13.0838 43.906 12.7352 43.6582 12.3035C43.4104 11.8719 43.2865 11.3822 43.2865 10.8177C43.2865 9.92126 43.6169 9.17421 44.2859 8.60147C44.9466 8.02043 45.9212 7.72991 47.2014 7.72991C48.1264 7.72991 48.8698 7.86272 49.4314 8.12834C49.993 8.39396 50.4308 8.77578 50.7529 9.26552C51.075 9.75525 51.3227 10.3363 51.4962 11.0169L50.2986 11.3075C50.0756 10.3944 49.7122 9.75525 49.2166 9.39003C48.7211 9.0248 48.0604 8.85049 47.251 8.85049C46.3507 8.85049 45.6817 9.0165 45.2192 9.35682C44.7567 9.69715 44.5337 10.1703 44.5337 10.7762C44.5337 11.1331 44.6328 11.4486 44.831 11.7391C45.0292 12.0296 45.3513 12.2703 45.8056 12.4612C46.2516 12.6521 46.871 12.8099 47.6557 12.9178C48.6302 13.0589 49.4314 13.283 50.0673 13.5735C50.695 13.864 51.1576 14.221 51.4466 14.6609C51.7357 15.0925 51.8761 15.5988 51.8761 16.1799C51.8761 16.8273 51.7357 17.3835 51.4466 17.8649C51.1576 18.3463 50.7033 18.7282 50.0921 19.0021C49.4727 19.276 48.6881 19.4088 47.73 19.4088L47.7382 19.4005Z" fill="#9D4EDD" stroke="#9D4EDD" stroke-width="0.25" stroke-miterlimit="10"/>
</g>
<defs>
<clipPath id="clip0_179_320">
<rect width="52" height="19" fill="white" transform="translate(0 0.500118)"/>
</clipPath>
</defs>
</svg>
