<svg width="163" height="198" viewBox="0 0 163 198" fill="none" xmlns="http://www.w3.org/2000/svg">
<rect y="0.177643" width="162" height="197" rx="20" fill="white"/>
<path d="M8.12323 142.645L0.120056 144.114V177.745H162.097V110.545H144.264L128.258 109.153L112.426 99.4973L109.033 100.106L92.7656 132.641L75.6283 134.294L62.3187 127.856L59.1 128.378L43.8766 152.388L24.3906 156.998L8.12323 142.645Z" fill="url(#paint0_linear_267_6)"/>
<path d="M110.646 85.4151V197.099" stroke="#FF0000" stroke-width="2" stroke-dasharray="0.1 5"/>
<path d="M38.0261 50.8236H39.5801V63.3256H38.0261V50.8236ZM32.9161 51.7336C34.7921 51.7336 36.1501 53.4416 36.1501 56.1436C36.1501 58.8596 34.7921 60.5676 32.9161 60.5676C31.0401 60.5676 29.6821 58.8596 29.6821 56.1436C29.6821 53.4416 31.0401 51.7336 32.9161 51.7336ZM32.9161 53.1336C31.8801 53.1336 31.1661 54.2396 31.1661 56.1436C31.1661 58.0616 31.8801 59.1816 32.9161 59.1816C33.9521 59.1816 34.6661 58.0616 34.6661 56.1436C34.6661 54.2396 33.9521 53.1336 32.9161 53.1336ZM44.3965 51.5096H45.9225V52.8116C45.9225 54.3936 46.9165 55.8776 48.8065 56.4936L48.0085 57.6836C46.6785 57.2216 45.7125 56.3116 45.1805 55.1496C44.6485 56.4796 43.6545 57.5156 42.2125 58.0476L41.3865 56.8296C43.4025 56.1296 44.3965 54.4496 44.3965 52.6856V51.5096ZM49.7445 50.8516H51.2845V53.8616H53.0205V55.1356H51.2845V58.2856H49.7445V50.8516ZM47.2665 58.5936C49.8425 58.5936 51.4245 59.4616 51.4245 60.9456C51.4245 62.4296 49.8425 63.2976 47.2665 63.2976C44.6905 63.2976 43.0945 62.4296 43.0945 60.9456C43.0945 59.4616 44.6905 58.5936 47.2665 58.5936ZM47.2665 59.7836C45.5725 59.7836 44.6065 60.1896 44.6065 60.9456C44.6065 61.7016 45.5725 62.1076 47.2665 62.1076C48.9465 62.1076 49.9125 61.7016 49.9125 60.9456C49.9125 60.1896 48.9465 59.7836 47.2665 59.7836ZM65.7393 50.8516H67.2793V57.9076H65.7393V50.8516ZM59.0893 58.5236H67.2793V63.1576H59.0893V58.5236ZM65.7813 59.7416H60.5873V61.9396H65.7813V59.7416ZM60.0273 51.3136H61.5813V52.5036C61.5813 54.1136 62.6313 55.6116 64.5913 56.2276L63.8493 57.4176C62.4073 56.9696 61.3853 56.0456 60.8253 54.8416C60.2653 56.1296 59.2153 57.1516 57.7313 57.6416L56.9893 56.4376C58.9913 55.7936 60.0273 54.1556 60.0273 52.5036V51.3136ZM77.4577 50.8516H78.9977V53.9456H80.7197V55.2196H78.9977V58.3276H77.4577V50.8516ZM70.7657 58.9296H78.9977V63.3116H77.4577V60.1616H70.7657V58.9296ZM69.6737 51.6216H71.1997V53.3856H74.0557V51.6216H75.5677V57.6136H69.6737V51.6216ZM71.1997 54.5756V56.4096H74.0557V54.5756H71.1997ZM86.306 51.2436H87.93V51.8736C87.93 53.4276 89.666 55.0376 92.284 55.4016L91.682 56.6196C89.582 56.2976 87.93 55.2616 87.118 53.8616C86.32 55.2756 84.668 56.2976 82.554 56.6196L81.952 55.4016C84.584 55.0376 86.306 53.4556 86.306 51.8736V51.2436ZM81.476 57.7116H92.746V58.9716H87.846V63.3116H86.306V58.9716H81.476V57.7116ZM105.675 50.8516H107.215V58.2856H105.675V50.8516ZM103.029 58.5516C105.647 58.5516 107.271 59.4476 107.271 60.9456C107.271 62.4576 105.647 63.3396 103.029 63.3396C100.425 63.3396 98.8149 62.4576 98.8149 60.9456C98.8149 59.4476 100.425 58.5516 103.029 58.5516ZM103.029 59.7416C101.307 59.7416 100.355 60.1616 100.355 60.9456C100.355 61.7296 101.307 62.1636 103.029 62.1636C104.765 62.1636 105.745 61.7296 105.745 60.9456C105.745 60.1616 104.765 59.7416 103.029 59.7416ZM97.4289 51.7336H104.219V52.9516H101.615V52.9936C101.615 54.5196 102.693 56.0036 104.639 56.6196L103.869 57.8236C102.469 57.3756 101.447 56.4656 100.887 55.2896C100.327 56.6056 99.2909 57.6416 97.8069 58.1316L97.0229 56.9416C99.0249 56.2696 100.047 54.6316 100.047 52.9936V52.9516H97.4289V51.7336ZM109.721 52.1956H114.033V50.8096H115.559V52.1956H119.829V53.4136H109.721V52.1956ZM109.175 58.9156H120.459V60.1476H115.559V63.3116H114.033V60.1476H109.175V58.9156ZM114.803 53.9876C117.435 53.9876 118.989 54.7296 118.989 56.1016C118.989 57.4456 117.435 58.2156 114.803 58.2156C112.171 58.2156 110.617 57.4456 110.617 56.1016C110.617 54.7296 112.171 53.9876 114.803 53.9876ZM114.803 55.1216C113.095 55.1216 112.213 55.4576 112.213 56.1016C112.213 56.7456 113.095 57.0536 114.803 57.0536C116.511 57.0536 117.393 56.7456 117.393 56.1016C117.393 55.4576 116.511 55.1216 114.803 55.1216ZM129.546 50.8236H131.1V55.7096H132.934V56.9836H131.1V63.2976H129.546V50.8236ZM127.824 52.1396C127.824 55.8076 126.326 58.9996 122.224 61.0576L121.356 59.8956C124.366 58.3556 125.976 56.2276 126.27 53.3856H122.014V52.1396H127.824ZM41.7095 69.5796H47.4915V70.8116H43.2495V71.9876H47.2535V73.1916H43.2495V74.4236C45.3775 74.4096 46.7075 74.3536 48.2335 74.0876L48.3875 75.3056C46.7075 75.5996 45.2235 75.6556 42.7175 75.6556H41.7095V69.5796ZM42.9695 76.7336H50.9635V81.1576H42.9695V76.7336ZM49.4655 77.9516H44.4815V79.9396H49.4655V77.9516ZM49.4235 68.8516H50.9635V71.8196H52.6855V73.0936H50.9635V76.1456H49.4235V68.8516ZM53.8198 70.0696H60.8058V71.3436H58.0898V72.3796C58.0898 74.4376 59.2938 76.5796 61.2678 77.4196L60.4138 78.6376C58.9718 77.9936 57.9078 76.6916 57.3338 75.1096C56.7738 76.8176 55.6958 78.2596 54.2398 78.9456L53.3578 77.7276C55.3318 76.8176 56.5358 74.5076 56.5358 72.3796V71.3436H53.8198V70.0696ZM62.1638 68.8516H63.7038V81.3116H62.1638V68.8516ZM69.7867 69.9856H76.1847V71.2036H71.3267V74.0036H76.2407V75.2496H73.7487V77.4336C74.8267 77.3916 75.9047 77.3216 76.9127 77.2096L77.0247 78.3156C74.3367 78.7356 71.4807 78.7916 69.1287 78.7776L68.9467 77.5176C69.9547 77.5176 71.0747 77.5036 72.2087 77.4896V75.2496H69.7867V69.9856ZM77.6547 68.8236H79.1807V81.3256H77.6547V68.8236ZM84.179 76.3416H85.677V76.9156C85.677 77.9656 86.139 79.0716 87.189 79.7716C88.267 79.0156 88.757 77.8536 88.757 76.9156V76.3416H90.269V76.9156C90.269 78.2316 91.025 79.4916 92.649 80.0236L91.879 81.1436C90.689 80.7236 89.905 79.9256 89.485 78.9176C89.079 79.9116 88.351 80.7936 87.217 81.2696C86.055 80.8216 85.327 79.9676 84.921 78.9736C84.487 79.9256 83.703 80.7236 82.569 81.1436L81.799 80.0236C83.409 79.4356 84.179 78.1476 84.179 76.9156V76.3416ZM84.571 69.5096C86.181 69.5096 87.455 70.4476 87.749 71.8196H89.961V68.8516H91.501V75.8656H89.961V73.0796H87.763C87.469 74.4796 86.195 75.4176 84.571 75.4176C82.709 75.4176 81.323 74.1996 81.323 72.4636C81.323 70.7416 82.709 69.5096 84.571 69.5096ZM84.571 70.7836C83.535 70.7836 82.779 71.4416 82.779 72.4636C82.779 73.4996 83.535 74.1576 84.571 74.1576C85.593 74.1576 86.349 73.4996 86.349 72.4636C86.349 71.4416 85.593 70.7836 84.571 70.7836ZM96.7374 69.7336C98.4174 69.7336 99.6634 71.1476 99.8874 73.4296H102.211V68.8236H103.737V81.3256H102.211V74.6616H99.9014C99.7334 77.0696 98.4594 78.5676 96.7374 78.5676C94.9034 78.5676 93.5734 76.8596 93.5734 74.1436C93.5734 71.4416 94.9034 69.7336 96.7374 69.7336ZM96.7374 71.1336C95.7294 71.1336 95.0294 72.2396 95.0294 74.1436C95.0294 76.0616 95.7294 77.1816 96.7374 77.1816C97.7734 77.1816 98.4594 76.0616 98.4594 74.1436C98.4594 72.2396 97.7734 71.1336 96.7374 71.1336ZM105.614 78.5396H108.204V75.3616C107.224 74.7876 106.636 73.9056 106.636 72.7996C106.636 70.7976 108.582 69.5096 111.242 69.5096C113.916 69.5096 115.848 70.7976 115.848 72.7996C115.848 73.9056 115.26 74.7876 114.294 75.3616V78.5396H116.898V79.7856H105.614V78.5396ZM111.242 70.7136C109.408 70.7136 108.148 71.5116 108.148 72.7996C108.148 74.1016 109.408 74.8856 111.242 74.8856C113.076 74.8856 114.336 74.1016 114.336 72.7996C114.336 71.5116 113.076 70.7136 111.242 70.7136ZM109.744 78.5396H112.754V75.9356C112.292 76.0336 111.774 76.0896 111.242 76.0896C110.71 76.0896 110.206 76.0336 109.744 75.9356V78.5396ZM118.998 78.7636C119.502 78.7636 119.852 79.1276 119.852 79.6316C119.852 80.1496 119.502 80.5136 118.998 80.5136C118.48 80.5136 118.116 80.1496 118.116 79.6316C118.116 79.1276 118.48 78.7636 118.998 78.7636Z" fill="black"/>
<path d="M62.198 21.8236H63.752V34.3256H62.198V21.8236ZM57.088 22.7336C58.964 22.7336 60.322 24.4416 60.322 27.1436C60.322 29.8596 58.964 31.5676 57.088 31.5676C55.212 31.5676 53.854 29.8596 53.854 27.1436C53.854 24.4416 55.212 22.7336 57.088 22.7336ZM57.088 24.1336C56.052 24.1336 55.338 25.2396 55.338 27.1436C55.338 29.0616 56.052 30.1816 57.088 30.1816C58.124 30.1816 58.838 29.0616 58.838 27.1436C58.838 25.2396 58.124 24.1336 57.088 24.1336ZM68.5683 22.5096H70.0943V23.8116C70.0943 25.3936 71.0883 26.8776 72.9783 27.4936L72.1803 28.6836C70.8503 28.2216 69.8843 27.3116 69.3523 26.1496C68.8203 27.4796 67.8263 28.5156 66.3843 29.0476L65.5583 27.8296C67.5743 27.1296 68.5683 25.4496 68.5683 23.6856V22.5096ZM73.9163 21.8516H75.4563V24.8616H77.1923V26.1356H75.4563V29.2856H73.9163V21.8516ZM71.4383 29.5936C74.0143 29.5936 75.5963 30.4616 75.5963 31.9456C75.5963 33.4296 74.0143 34.2976 71.4383 34.2976C68.8623 34.2976 67.2663 33.4296 67.2663 31.9456C67.2663 30.4616 68.8623 29.5936 71.4383 29.5936ZM71.4383 30.7836C69.7443 30.7836 68.7783 31.1896 68.7783 31.9456C68.7783 32.7016 69.7443 33.1076 71.4383 33.1076C73.1183 33.1076 74.0843 32.7016 74.0843 31.9456C74.0843 31.1896 73.1183 30.7836 71.4383 30.7836ZM86.6847 21.8516H88.2247V29.2856H86.6847V21.8516ZM84.0387 29.5516C86.6567 29.5516 88.2807 30.4476 88.2807 31.9456C88.2807 33.4576 86.6567 34.3396 84.0387 34.3396C81.4347 34.3396 79.8247 33.4576 79.8247 31.9456C79.8247 30.4476 81.4347 29.5516 84.0387 29.5516ZM84.0387 30.7416C82.3167 30.7416 81.3647 31.1616 81.3647 31.9456C81.3647 32.7296 82.3167 33.1636 84.0387 33.1636C85.7747 33.1636 86.7547 32.7296 86.7547 31.9456C86.7547 31.1616 85.7747 30.7416 84.0387 30.7416ZM78.4387 22.7336H85.2287V23.9516H82.6247V23.9936C82.6247 25.5196 83.7027 27.0036 85.6487 27.6196L84.8787 28.8236C83.4787 28.3756 82.4567 27.4656 81.8967 26.2896C81.3367 27.6056 80.3007 28.6416 78.8167 29.1316L78.0327 27.9416C80.0347 27.2696 81.0567 25.6316 81.0567 23.9936V23.9516H78.4387V22.7336ZM90.731 23.1956H95.043V21.8096H96.569V23.1956H100.839V24.4136H90.731V23.1956ZM90.185 29.9156H101.469V31.1476H96.569V34.3116H95.043V31.1476H90.185V29.9156ZM95.813 24.9876C98.445 24.9876 99.999 25.7296 99.999 27.1016C99.999 28.4456 98.445 29.2156 95.813 29.2156C93.181 29.2156 91.627 28.4456 91.627 27.1016C91.627 25.7296 93.181 24.9876 95.813 24.9876ZM95.813 26.1216C94.105 26.1216 93.223 26.4576 93.223 27.1016C93.223 27.7456 94.105 28.0536 95.813 28.0536C97.521 28.0536 98.403 27.7456 98.403 27.1016C98.403 26.4576 97.521 26.1216 95.813 26.1216ZM106.152 22.5796H111.934V23.8116H107.692V24.9876H111.696V26.1916H107.692V27.4236C109.82 27.4096 111.15 27.3536 112.676 27.0876L112.83 28.3056C111.15 28.5996 109.666 28.6556 107.16 28.6556H106.152V22.5796ZM107.412 29.7336H115.406V34.1576H107.412V29.7336ZM113.908 30.9516H108.924V32.9396H113.908V30.9516ZM113.866 21.8516H115.406V24.8196H117.128V26.0936H115.406V29.1456H113.866V21.8516ZM118.262 23.0696H125.248V24.3436H122.532V25.3796C122.532 27.4376 123.736 29.5796 125.71 30.4196L124.856 31.6376C123.414 30.9936 122.35 29.6916 121.776 28.1096C121.216 29.8176 120.138 31.2596 118.682 31.9456L117.8 30.7276C119.774 29.8176 120.978 27.5076 120.978 25.3796V24.3436H118.262V23.0696ZM126.606 21.8516H128.146V34.3116H126.606V21.8516Z" fill="#FF0000"/>
<path d="M45.114 30.443L41.1727 23.8736C40.6553 23.0116 39.864 22.5183 39 22.5183C38.136 22.5183 37.3447 23.0116 36.8273 23.8723L32.886 30.443C32.362 31.3156 32.3047 32.2463 32.7293 32.9963C33.1533 33.747 33.9813 34.1776 35 34.1776H43C44.0187 34.1776 44.8467 33.747 45.2707 32.997C45.6947 32.247 45.638 31.3163 45.114 30.443ZM39 31.877C38.4307 31.877 37.9667 31.4136 37.9667 30.8443C37.9667 30.2743 38.43 29.8103 39 29.8103C39.57 29.8103 40.0333 30.2743 40.0333 30.8443C40.0333 31.4136 39.5693 31.877 39 31.877ZM40.0887 26.9276C40.0813 26.9483 39.1547 29.2396 39.1547 29.2396C39.1293 29.3023 39.068 29.3436 39.0007 29.3436C38.9333 29.3436 38.872 29.3023 38.8467 29.2396L37.9193 26.9476C37.8637 26.8087 37.8345 26.6606 37.8333 26.511C37.8333 25.8676 38.3567 25.3443 39 25.3443C39.1889 25.3448 39.3749 25.3911 39.5421 25.4793C39.7092 25.5675 39.8524 25.6949 39.9594 25.8505C40.0665 26.0062 40.1342 26.1856 40.1567 26.3732C40.1792 26.5608 40.1558 26.751 40.0887 26.9276Z" fill="#FF0000"/>
<path d="M148.882 110.743H162.033" stroke="#FF0000" stroke-width="2.71222"/>
<path d="M131.55 110.109L140.712 110.622" stroke="#FF0000" stroke-width="2.71222"/>
<path d="M95.2933 129.97L108.285 102.099" stroke="#FF0000" stroke-width="2.71222"/>
<path d="M79.9508 133.95L88.9536 133.084" stroke="#D9D9D9" stroke-width="2.71222"/>
<path d="M64.8977 129.703L72.1965 132.385" stroke="#D9D9D9" stroke-width="2.71222"/>
<path d="M46.0947 148.241L57.8207 130.371" stroke="#D9D9D9" stroke-width="2.71222"/>
<path d="M132.968 108.862C132.968 111.675 130.688 113.955 127.875 113.955C125.063 113.955 122.783 111.675 122.783 108.862C122.783 106.05 125.063 103.77 127.875 103.77C130.688 103.77 132.968 106.05 132.968 108.862ZM125.018 108.862C125.018 110.44 126.297 111.719 127.875 111.719C129.453 111.719 130.732 110.44 130.732 108.862C130.732 107.285 129.453 106.006 127.875 106.006C126.297 106.006 125.018 107.285 125.018 108.862Z" fill="#D9D9D9"/>
<path d="M149.622 110.622C149.622 113.435 147.343 115.715 144.53 115.715C141.718 115.715 139.438 113.435 139.438 110.622C139.438 107.81 141.718 105.53 144.53 105.53C147.343 105.53 149.622 107.81 149.622 110.622ZM141.673 110.622C141.673 112.2 142.952 113.479 144.53 113.479C146.108 113.479 147.387 112.2 147.387 110.622C147.387 109.044 146.108 107.765 144.53 107.765C142.952 107.765 141.673 109.044 141.673 110.622Z" fill="#D9D9D9"/>
<path d="M11.6989 145.538L21.3818 154.4M29.3124 156.027L40.329 153.521" stroke="#D9D9D9" stroke-width="2.71222"/>
<path d="M98.1286 133.019C98.1286 135.831 95.8487 138.111 93.0363 138.111C90.2239 138.111 87.944 135.831 87.944 133.019C87.944 130.207 90.2239 127.927 93.0363 127.927C95.8487 127.927 98.1286 130.207 98.1286 133.019ZM90.1795 133.019C90.1795 134.597 91.4585 135.876 93.0363 135.876C94.6141 135.876 95.8931 134.597 95.8931 133.019C95.8931 131.441 94.6141 130.162 93.0363 130.162C91.4585 130.162 90.1795 131.441 90.1795 133.019Z" fill="#D9D9D9"/>
<path d="M80.867 134.129C80.867 136.941 78.5871 139.221 75.7746 139.221C72.9622 139.221 70.6823 136.941 70.6823 134.129C70.6823 131.317 72.9622 129.037 75.7746 129.037C78.5871 129.037 80.867 131.317 80.867 134.129ZM72.9178 134.129C72.9178 135.707 74.1969 136.986 75.7746 136.986C77.3524 136.986 78.6314 135.707 78.6314 134.129C78.6314 132.551 77.3524 131.272 75.7746 131.272C74.1969 131.272 72.9178 132.551 72.9178 134.129Z" fill="#D9D9D9"/>
<path d="M65.9811 127.927C65.9811 130.739 63.7012 133.019 60.8887 133.019C58.0763 133.019 55.7964 130.739 55.7964 127.927C55.7964 125.114 58.0763 122.834 60.8887 122.834C63.7012 122.834 65.9811 125.114 65.9811 127.927ZM58.0319 127.927C58.0319 129.504 59.311 130.783 60.8887 130.783C62.4665 130.783 63.7455 129.504 63.7455 127.927C63.7455 126.349 62.4665 125.07 60.8887 125.07C59.311 125.07 58.0319 126.349 58.0319 127.927Z" fill="#D9D9D9"/>
<path d="M49.1655 152.033C49.1655 154.845 46.8856 157.125 44.0732 157.125C41.2608 157.125 38.9809 154.845 38.9809 152.033C38.9809 149.221 41.2608 146.941 44.0732 146.941C46.8856 146.941 49.1655 149.221 49.1655 152.033ZM41.2164 152.033C41.2164 153.611 42.4955 154.89 44.0732 154.89C45.651 154.89 46.93 153.611 46.93 152.033C46.93 150.455 45.651 149.176 44.0732 149.176C42.4955 149.176 41.2164 150.455 41.2164 152.033Z" fill="#D9D9D9"/>
<path d="M30.2826 156.429C30.2826 159.241 28.0026 161.521 25.1902 161.521C22.3778 161.521 20.0979 159.241 20.0979 156.429C20.0979 153.616 22.3778 151.336 25.1902 151.336C28.0026 151.336 30.2826 153.616 30.2826 156.429ZM22.3334 156.429C22.3334 158.006 23.6125 159.285 25.1902 159.285C26.768 159.285 28.047 158.006 28.047 156.429C28.047 154.851 26.768 153.572 25.1902 153.572C23.6125 153.572 22.3334 154.851 22.3334 156.429Z" fill="#D9D9D9"/>
<path d="M13.6049 143.473C13.6049 146.285 11.325 148.565 8.51255 148.565C5.70014 148.565 3.42023 146.285 3.42023 143.473C3.42023 140.66 5.70014 138.38 8.51255 138.38C11.325 138.38 13.6049 140.66 13.6049 143.473ZM5.65575 143.473C5.65575 145.05 6.93478 146.329 8.51255 146.329C10.0903 146.329 11.3694 145.05 11.3694 143.473C11.3694 141.895 10.0903 140.616 8.51255 140.616C6.93478 140.616 5.65575 141.895 5.65575 143.473Z" fill="#D9D9D9"/>
<circle cx="127.875" cy="108.862" r="5.09233" fill="white"/>
<circle cx="93.0363" cy="133.019" r="5.09233" fill="white"/>
<circle cx="75.7746" cy="134.129" r="5.09233" fill="white"/>
<circle cx="60.8887" cy="127.927" r="5.09233" fill="white"/>
<circle cx="44.0732" cy="152.033" r="5.09233" fill="white"/>
<circle cx="25.1902" cy="156.429" r="5.09233" fill="white"/>
<circle cx="8.51255" cy="143.473" r="5.09233" fill="white"/>
<path d="M132.968 108.862C132.968 111.675 130.688 113.955 127.875 113.955C125.063 113.955 122.783 111.675 122.783 108.862C122.783 106.05 125.063 103.77 127.875 103.77C130.688 103.77 132.968 106.05 132.968 108.862ZM125.018 108.862C125.018 110.44 126.297 111.719 127.875 111.719C129.453 111.719 130.732 110.44 130.732 108.862C130.732 107.285 129.453 106.006 127.875 106.006C126.297 106.006 125.018 107.285 125.018 108.862Z" fill="#FF0000"/>
<circle cx="144.53" cy="110.622" r="5.09233" fill="white"/>
<path d="M149.622 110.622C149.622 113.435 147.343 115.715 144.53 115.715C141.718 115.715 139.438 113.435 139.438 110.622C139.438 107.81 141.718 105.53 144.53 105.53C147.343 105.53 149.622 107.81 149.622 110.622ZM141.673 110.622C141.673 112.2 142.952 113.479 144.53 113.479C146.108 113.479 147.387 112.2 147.387 110.622C147.387 109.044 146.108 107.765 144.53 107.765C142.952 107.765 141.673 109.044 141.673 110.622Z" fill="#FF0000"/>
<path d="M98.1286 133.019C98.1286 135.831 95.8487 138.111 93.0363 138.111C90.2239 138.111 87.944 135.831 87.944 133.019C87.944 130.207 90.2239 127.927 93.0363 127.927C95.8487 127.927 98.1286 130.207 98.1286 133.019ZM90.1795 133.019C90.1795 134.597 91.4585 135.876 93.0363 135.876C94.6141 135.876 95.8931 134.597 95.8931 133.019C95.8931 131.441 94.6141 130.162 93.0363 130.162C91.4585 130.162 90.1795 131.441 90.1795 133.019Z" fill="#FF0000"/>
<path d="M80.867 134.129C80.867 136.941 78.5871 139.221 75.7746 139.221C72.9622 139.221 70.6823 136.941 70.6823 134.129C70.6823 131.317 72.9622 129.037 75.7746 129.037C78.5871 129.037 80.867 131.317 80.867 134.129ZM72.9178 134.129C72.9178 135.707 74.1969 136.986 75.7746 136.986C77.3524 136.986 78.6314 135.707 78.6314 134.129C78.6314 132.551 77.3524 131.272 75.7746 131.272C74.1969 131.272 72.9178 132.551 72.9178 134.129Z" fill="#D9D9D9"/>
<path d="M65.9811 127.927C65.9811 130.739 63.7012 133.019 60.8887 133.019C58.0763 133.019 55.7964 130.739 55.7964 127.927C55.7964 125.114 58.0763 122.834 60.8887 122.834C63.7012 122.834 65.9811 125.114 65.9811 127.927ZM58.0319 127.927C58.0319 129.504 59.311 130.783 60.8887 130.783C62.4665 130.783 63.7455 129.504 63.7455 127.927C63.7455 126.349 62.4665 125.07 60.8887 125.07C59.311 125.07 58.0319 126.349 58.0319 127.927Z" fill="#D9D9D9"/>
<path d="M49.1655 152.033C49.1655 154.845 46.8856 157.125 44.0732 157.125C41.2608 157.125 38.9809 154.845 38.9809 152.033C38.9809 149.221 41.2608 146.941 44.0732 146.941C46.8856 146.941 49.1655 149.221 49.1655 152.033ZM41.2164 152.033C41.2164 153.611 42.4955 154.89 44.0732 154.89C45.651 154.89 46.93 153.611 46.93 152.033C46.93 150.455 45.651 149.176 44.0732 149.176C42.4955 149.176 41.2164 150.455 41.2164 152.033Z" fill="#D9D9D9"/>
<path d="M30.2826 156.429C30.2826 159.241 28.0026 161.521 25.1902 161.521C22.3778 161.521 20.0979 159.241 20.0979 156.429C20.0979 153.616 22.3778 151.336 25.1902 151.336C28.0026 151.336 30.2826 153.616 30.2826 156.429ZM22.3334 156.429C22.3334 158.006 23.6125 159.285 25.1902 159.285C26.768 159.285 28.047 158.006 28.047 156.429C28.047 154.851 26.768 153.572 25.1902 153.572C23.6125 153.572 22.3334 154.851 22.3334 156.429Z" fill="#D9D9D9"/>
<path d="M13.6049 143.473C13.6049 146.285 11.325 148.565 8.51255 148.565C5.70014 148.565 3.42023 146.285 3.42023 143.473C3.42023 140.66 5.70014 138.38 8.51255 138.38C11.325 138.38 13.6049 140.66 13.6049 143.473ZM5.65575 143.473C5.65575 145.05 6.93478 146.329 8.51255 146.329C10.0903 146.329 11.3694 145.05 11.3694 143.473C11.3694 141.895 10.0903 140.616 8.51255 140.616C6.93478 140.616 5.65575 141.895 5.65575 143.473Z" fill="#D9D9D9"/>
<path d="M114.007 100.639L124.266 106.535" stroke="#FF0000" stroke-width="2"/>
<circle cx="110.646" cy="98.6777" r="5.09233" fill="white"/>
<path d="M115.738 98.6777C115.738 101.49 113.459 103.77 110.646 103.77C107.834 103.77 105.554 101.49 105.554 98.6777C105.554 95.8652 107.834 93.5853 110.646 93.5853C113.459 93.5853 115.738 95.8652 115.738 98.6777ZM107.789 98.6777C107.789 100.255 109.068 101.534 110.646 101.534C112.224 101.534 113.503 100.255 113.503 98.6777C113.503 97.0999 112.224 95.8208 110.646 95.8208C109.068 95.8208 107.789 97.0999 107.789 98.6777Z" fill="#FF0000"/>
<defs>
<linearGradient id="paint0_linear_267_6" x1="81.1088" y1="99.4973" x2="81.1088" y2="177.745" gradientUnits="userSpaceOnUse">
<stop stop-color="#D9D9D9"/>
<stop offset="0.76" stop-color="white"/>
</linearGradient>
</defs>
</svg>
