<svg width="162" height="198" viewBox="0 0 162 198" fill="none" xmlns="http://www.w3.org/2000/svg">
<rect y="0.177643" width="162" height="197" rx="20" fill="white"/>
<path d="M32.5893 24.9576V26.2596H27.5353V29.4656H31.8193V30.7536H27.5353V35.2896H26.0513V24.9576H32.5893ZM34.2824 24.9576H35.7664V35.2896H34.2824V24.9576ZM45.0705 24.9576V26.2596H42.1585V35.2896H40.6605V26.2596H37.7345V24.9576H45.0705ZM46.8143 29.2836H52.9183V30.7676H46.8143V29.2836ZM58.93 35.3876C56.438 35.3876 54.982 33.6516 54.982 31.2016V24.9576H56.466V31.2016C56.466 32.8816 57.292 34.0156 58.93 34.0156C60.568 34.0156 61.394 32.8816 61.394 31.2016V24.9576H62.892V31.2016C62.892 33.6516 61.422 35.3876 58.93 35.3876ZM65.823 32.3496C66.425 33.5256 67.279 34.1136 68.175 34.1136C69.505 34.1276 70.247 33.4836 70.247 32.4896C70.247 30.1376 65.053 31.1456 65.053 27.5476C65.053 25.8396 66.453 24.8316 68.371 24.8456C69.701 24.8596 70.975 25.6016 71.549 27.2116L70.219 27.6876C69.855 26.6096 69.127 26.1476 68.357 26.1336C67.251 26.1336 66.537 26.6796 66.537 27.5476C66.537 29.8716 71.717 28.9896 71.717 32.5036C71.717 34.2396 70.359 35.4296 68.161 35.4016C66.649 35.3876 65.445 34.5196 64.591 33.0356L65.823 32.3496ZM82.3065 23.8376H83.7625V36.2976H82.3065V23.8376ZM79.7865 24.0756H81.2285V35.7096H79.7865V29.7736H78.5965C78.4705 32.2236 77.4345 33.6936 75.9085 33.6936C74.2845 33.6936 73.2345 31.9996 73.2345 29.2276C73.2345 26.4696 74.2845 24.7756 75.9085 24.7756C77.4065 24.7756 78.4145 26.1896 78.5825 28.5276H79.7865V24.0756ZM75.9085 26.2316C75.1105 26.2316 74.6345 27.2816 74.6345 29.2276C74.6345 31.1876 75.1105 32.2516 75.9085 32.2516C76.7205 32.2516 77.1965 31.1876 77.1965 29.2276C77.1965 27.2816 76.7205 26.2316 75.9085 26.2316ZM91.6028 27.8696H94.1928V23.8236H95.7188V36.3256H94.1928V29.1156H91.6028V27.8696ZM88.3688 24.8456H89.9088V26.8196C89.9088 29.1296 90.9868 31.4116 92.9608 32.3076L92.0508 33.5396C90.6648 32.8536 89.6848 31.5376 89.1388 29.9276C88.5928 31.6356 87.5848 33.0356 86.1848 33.7496L85.2328 32.5176C87.2348 31.5656 88.3688 29.1576 88.3688 26.8196V24.8456ZM109.992 23.8376H111.462V36.2976H109.992V29.9696H108.634V35.6816H107.206V24.0896H108.634V28.7096H109.992V23.8376ZM101.214 25.3216H105.806V26.5676H102.726V32.1256C104.056 32.1116 105.176 32.0276 106.422 31.7896L106.562 33.0496C105.05 33.3436 103.762 33.3996 102.054 33.3996H101.214V25.3216ZM121.304 23.8516H122.844V28.9896H124.552V30.2776H122.844V36.3116H121.304V23.8516ZM112.918 32.8536C113.856 32.8536 114.934 32.8536 116.068 32.8256V31.6496C114.724 31.4256 113.842 30.5856 113.842 29.3956C113.842 27.9956 115.074 27.0716 116.838 27.0716C118.602 27.0716 119.848 27.9956 119.848 29.3956C119.848 30.5856 118.952 31.4256 117.608 31.6496V32.7556C118.63 32.7136 119.652 32.6156 120.618 32.4896L120.744 33.5956C118.098 34.1136 115.242 34.1136 113.128 34.1136L112.918 32.8536ZM113.142 25.2656H116.068V23.8936H117.608V25.2656H120.52V26.4836H113.142V25.2656ZM116.838 28.2336C115.914 28.2336 115.298 28.6676 115.298 29.3956C115.298 30.1236 115.914 30.5576 116.838 30.5576C117.776 30.5576 118.392 30.1236 118.392 29.3956C118.392 28.6676 117.776 28.2336 116.838 28.2336ZM125.294 29.5216H136.578V30.6416H125.294V29.5216ZM126.582 31.4116H135.206V34.2536H128.136V35.1216H135.57V36.1856H126.61V33.2596H133.694V32.4756H126.582V31.4116ZM126.694 24.1176H135.164V26.9316H128.22V27.7296H135.402V28.8076H126.722V25.9376H133.652V25.1816H126.694V24.1176ZM13.13 50.3336H17.988V49.3956H14.572V44.1876H23.07V45.3636H16.098V46.1896H22.776V47.3376H16.098V48.2196H23.154V49.3956H19.528V50.3336H24.386V51.5516H13.13V50.3336ZM18.758 52.2656C21.474 52.2656 23.056 52.9516 23.056 54.2816C23.056 55.5976 21.474 56.2976 18.758 56.2976C16.014 56.2976 14.446 55.5976 14.446 54.2816C14.446 52.9516 16.014 52.2656 18.758 52.2656ZM18.758 53.3856C16.924 53.3856 16 53.6796 16 54.2816C16 54.8836 16.924 55.1636 18.758 55.1636C20.578 55.1636 21.516 54.8836 21.516 54.2816C21.516 53.6796 20.578 53.3856 18.758 53.3856ZM25.3523 45.8256H27.6343V44.1736H29.1463V45.8256H31.4003V47.0436H25.3523V45.8256ZM28.3903 47.7156C29.9723 47.7156 31.1063 48.9196 31.1063 50.6276C31.1063 52.3496 29.9723 53.5536 28.3903 53.5536C26.8223 53.5536 25.6883 52.3496 25.6883 50.6276C25.6883 48.9196 26.8223 47.7156 28.3903 47.7156ZM28.3903 48.9896C27.6063 48.9896 27.0463 49.6336 27.0463 50.6276C27.0463 51.6356 27.6063 52.2656 28.3903 52.2656C29.1743 52.2656 29.7483 51.6356 29.7483 50.6276C29.7483 49.6336 29.1743 48.9896 28.3903 48.9896ZM34.5503 43.8376H36.0063V56.2976H34.5503V50.2216H33.3463V55.7376H31.9043V44.1036H33.3463V48.9756H34.5503V43.8376ZM49.5652 43.8236H51.1192V56.3256H49.5652V43.8236ZM44.4552 44.7336C46.3312 44.7336 47.6892 46.4416 47.6892 49.1436C47.6892 51.8596 46.3312 53.5676 44.4552 53.5676C42.5792 53.5676 41.2212 51.8596 41.2212 49.1436C41.2212 46.4416 42.5792 44.7336 44.4552 44.7336ZM44.4552 46.1336C43.4192 46.1336 42.7052 47.2396 42.7052 49.1436C42.7052 51.0616 43.4192 52.1816 44.4552 52.1816C45.4912 52.1816 46.2052 51.0616 46.2052 49.1436C46.2052 47.2396 45.4912 46.1336 44.4552 46.1336ZM53.0795 50.8376H64.3635V52.0976H61.6195V56.2976H60.0515V52.0976H57.3355V56.2976H55.7535V52.0976H53.0795V50.8376ZM58.6795 44.3136C61.3255 44.3136 63.1315 45.3636 63.1315 47.0576C63.1315 48.7516 61.3255 49.8156 58.6795 49.8156C56.0475 49.8156 54.2415 48.7516 54.2415 47.0576C54.2415 45.3636 56.0475 44.3136 58.6795 44.3136ZM58.6795 45.5316C56.9435 45.5316 55.8235 46.1056 55.8235 47.0576C55.8235 48.0376 56.9435 48.5836 58.6795 48.5836C60.4295 48.5836 61.5635 48.0376 61.5635 47.0576C61.5635 46.1056 60.4295 45.5316 58.6795 45.5316ZM65.3158 49.5216H76.5998V50.6416H65.3158V49.5216ZM66.6038 51.4116H75.2278V54.2536H68.1578V55.1216H75.5918V56.1856H66.6318V53.2596H73.7158V52.4756H66.6038V51.4116ZM66.7158 44.1176H75.1858V46.9316H68.2418V47.7296H75.4238V48.8076H66.7438V45.9376H73.6738V45.1816H66.7158V44.1176ZM88.9827 43.8516H90.5227V46.3436H92.2447V47.6036H90.5227V50.1096H88.9827V43.8516ZM82.4307 50.6416H90.5227V53.9176H83.9847V54.9396H90.9287V56.1576H82.4587V52.7836H89.0107V51.8316H82.4307V50.6416ZM84.1947 44.2296C86.0847 44.2296 87.4847 45.4056 87.4847 47.0436C87.4847 48.6816 86.0847 49.8436 84.1947 49.8436C82.3187 49.8436 80.9187 48.6816 80.9187 47.0436C80.9187 45.4056 82.3187 44.2296 84.1947 44.2296ZM84.1947 45.4756C83.1587 45.4756 82.4027 46.0916 82.4027 47.0436C82.4027 47.9956 83.1587 48.6116 84.1947 48.6116C85.2447 48.6116 85.9867 47.9956 85.9867 47.0436C85.9867 46.0916 85.2447 45.4756 84.1947 45.4756ZM96.3471 44.7336C98.2091 44.7336 99.5531 46.4416 99.5531 49.1436C99.5531 51.8596 98.2091 53.5676 96.3471 53.5676C94.4711 53.5676 93.1271 51.8596 93.1271 49.1436C93.1271 46.4416 94.4711 44.7336 96.3471 44.7336ZM96.3471 46.1336C95.3111 46.1336 94.5971 47.2396 94.5971 49.1436C94.5971 51.0616 95.3111 52.1816 96.3471 52.1816C97.3831 52.1816 98.0831 51.0616 98.0831 49.1436C98.0831 47.2396 97.3831 46.1336 96.3471 46.1336ZM101.163 43.8516H102.717V48.6536H104.607V49.9276H102.717V56.3116H101.163V43.8516ZM106.707 44.0336H108.233V44.9856H113.525V44.0336H115.065V48.1776H111.635V49.1436H116.507V50.3476H105.251V49.1436H110.081V48.1776H106.707V44.0336ZM108.233 46.1336V47.0296H113.525V46.1336H108.233ZM106.553 51.1456H115.107V54.1556H108.093V55.0376H115.457V56.1996H106.595V53.0916H113.595V52.2796H106.553V51.1456ZM125.804 43.8376H127.344V48.8076H129.052V50.0816H127.344V56.2976H125.804V43.8376ZM121.17 45.1396C121.17 48.4156 120.736 51.1736 118.51 53.6236L117.306 52.7416C119.042 50.8796 119.602 48.8916 119.714 46.3856H117.796V45.1396H121.17ZM124.6 45.1396C124.6 48.5136 124.25 51.7196 122.038 54.4216L120.834 53.5676C122.57 51.4396 123.06 49.1016 123.144 46.3856H121.59V45.1396H124.6ZM129.724 53.5396H132.314V50.3616C131.334 49.7876 130.746 48.9056 130.746 47.7996C130.746 45.7976 132.692 44.5096 135.352 44.5096C138.026 44.5096 139.958 45.7976 139.958 47.7996C139.958 48.9056 139.37 49.7876 138.404 50.3616V53.5396H141.008V54.7856H129.724V53.5396ZM135.352 45.7136C133.518 45.7136 132.258 46.5116 132.258 47.7996C132.258 49.1016 133.518 49.8856 135.352 49.8856C137.186 49.8856 138.446 49.1016 138.446 47.7996C138.446 46.5116 137.186 45.7136 135.352 45.7136ZM133.854 53.5396H136.864V50.9356C136.402 51.0336 135.884 51.0896 135.352 51.0896C134.82 51.0896 134.316 51.0336 133.854 50.9356V53.5396ZM145.124 55.5136C144.606 55.5136 144.242 55.1496 144.242 54.6316C144.242 54.1136 144.606 53.7636 145.124 53.7636C145.642 53.7636 145.992 54.1136 145.992 54.6316C145.992 55.1496 145.642 55.5136 145.124 55.5136ZM144.354 52.4616C144.34 51.0196 144.76 50.1376 145.81 49.3676C146.832 48.6116 147.07 48.1496 147.098 47.5616C147.154 46.5816 146.426 45.8956 145.348 45.8956C144.55 45.8956 143.794 46.4696 143.472 47.2816L142.072 46.7636C142.59 45.3776 143.948 44.3976 145.348 44.3976C147.35 44.3976 148.694 45.7276 148.61 47.6316C148.554 48.6116 148.05 49.5776 146.706 50.5856C146.006 51.1036 145.852 51.4116 145.866 52.4476L144.354 52.4616Z" fill="black"/>
<path d="M18.4623 143.734H19.7223V144.672C19.7223 146.73 21.9483 148.62 24.2023 149.026L23.6563 150.034C21.7383 149.614 19.8903 148.312 19.0923 146.562C18.2803 148.312 16.4323 149.614 14.5283 150.034L14.0103 149.026C16.2223 148.606 18.4623 146.73 18.4623 144.672V143.734ZM13.5623 152.582H24.7203V153.59H13.5623V152.582ZM26.2886 144.14H31.9726V152.134H26.2886V144.14ZM30.7826 145.106H27.4786V151.154H30.7826V145.106ZM34.0866 142.922H35.3046V147.808H37.2926V148.816H35.3046V155.242H34.0866V142.922ZM39.4489 143.944H47.8209V144.924H40.6809V146.688H47.5409V147.654H40.6809V149.502H47.9329V150.496H39.4489V143.944ZM38.0349 152.666H49.1929V153.66H38.0349V152.666ZM51.2933 143.468H60.3373V144.448H58.5313V147.15H60.2953V148.116H56.4313V149.558H61.4013V150.538H50.2713V149.558H55.2273V148.116H51.3493V147.15H53.1133V144.448H51.2933V143.468ZM51.6993 151.574H52.9033V153.982H60.1693V154.976H51.6993V151.574ZM54.3313 147.15H57.3273V144.448H54.3313V147.15ZM71.8176 142.908H72.9796V155.228H71.8176V142.908ZM69.3676 143.174H70.5156V154.612H69.3676V148.662H67.8976C67.7996 151.084 66.7916 152.554 65.2656 152.554C63.6836 152.554 62.6476 150.902 62.6476 148.228C62.6476 145.568 63.6836 143.916 65.2656 143.916C66.7636 143.916 67.7576 145.344 67.8976 147.668H69.3676V143.174ZM65.2656 145.05C64.3416 145.05 63.7536 146.24 63.7536 148.228C63.7536 150.216 64.3416 151.42 65.2656 151.42C66.2176 151.42 66.7916 150.216 66.7916 148.228C66.7916 146.24 66.2176 145.05 65.2656 145.05ZM80.8899 147.052H83.6899V142.894H84.8939V155.256H83.6899V148.046H80.8899V147.052ZM77.8799 143.958H79.0839V146.114C79.0839 148.354 80.3999 150.608 82.2199 151.462L81.5059 152.442C80.1199 151.728 79.0419 150.3 78.4959 148.592C77.9499 150.398 76.8439 151.91 75.4579 152.652L74.7019 151.672C76.5359 150.776 77.8799 148.396 77.8799 146.114V143.958ZM97.1088 144.028V145.064H92.0268V148.592H96.3248V149.614H92.0268V154.22H90.8508V144.028H97.1088ZM98.9589 144.028H100.135V154.22H98.9589V144.028ZM109.387 144.028V145.064H106.405V154.22H105.229V145.064H102.247V144.028H109.387ZM111.258 148.438H117.236V149.6H111.258V148.438ZM123.22 154.318C120.812 154.318 119.412 152.624 119.412 150.23V144.028H120.588V150.244C120.588 152.022 121.498 153.254 123.22 153.254C124.942 153.254 125.866 152.022 125.866 150.244V144.028H127.042V150.23C127.042 152.624 125.628 154.318 123.22 154.318ZM129.879 151.476C130.411 152.54 131.307 153.296 132.357 153.296C133.729 153.324 134.583 152.624 134.583 151.532C134.583 148.928 129.347 150.02 129.347 146.478C129.347 144.84 130.719 143.902 132.539 143.916C133.939 143.944 135.073 144.686 135.563 146.17L134.513 146.534C134.205 145.54 133.449 144.966 132.525 144.952C131.349 144.938 130.509 145.498 130.509 146.478C130.509 149.054 135.745 148.004 135.745 151.546C135.745 153.226 134.429 154.36 132.343 154.332C130.859 154.304 129.725 153.478 128.885 152.008L129.879 151.476ZM137.265 148.62H148.423V149.53H137.265V148.62ZM138.581 150.468H147.037V153.142H139.813V154.22H147.415V155.088H138.609V152.316H145.847V151.336H138.581V150.468ZM138.679 143.258H146.995V145.876H139.883V146.87H147.219V147.752H138.707V145.064H145.805V144.126H138.679V143.258ZM51.84 162.922H53.044V169.264H51.84V162.922ZM45.064 169.88H53.044V172.89H46.268V174.136H53.464V175.102H45.092V171.994H51.854V170.846H45.064V169.88ZM46.114 163.258H47.332V164.196C47.332 165.876 48.564 167.402 50.412 168.004L49.81 168.942C48.382 168.452 47.29 167.458 46.73 166.17C46.198 167.556 45.078 168.648 43.608 169.18L43.006 168.214C44.882 167.57 46.114 165.946 46.114 164.196V163.258ZM64.4123 162.922H65.5743V170.692H64.4123V167.22H62.9283V170.258H61.7943V163.16H62.9283V166.226H64.4123V162.922ZM55.1023 164.35H57.6363V163.02H58.8263V164.35H61.3183V165.33H55.1023V164.35ZM58.2243 165.918C59.7783 165.918 60.8563 166.758 60.8563 168.032C60.8563 169.32 59.7783 170.146 58.2243 170.146C56.6843 170.146 55.6063 169.32 55.6063 168.032C55.6063 166.758 56.6843 165.918 58.2243 165.918ZM58.2243 166.828C57.3143 166.828 56.6843 167.29 56.6843 168.032C56.6843 168.774 57.3143 169.264 58.2243 169.264C59.1343 169.264 59.7783 168.774 59.7783 168.032C59.7783 167.29 59.1343 166.828 58.2243 166.828ZM61.5003 170.902C64.1043 170.902 65.6443 171.686 65.6443 173.058C65.6443 174.43 64.1043 175.214 61.5003 175.214C58.9243 175.214 57.3843 174.43 57.3843 173.058C57.3843 171.686 58.9243 170.902 61.5003 170.902ZM61.5003 171.826C59.6663 171.826 58.5743 172.246 58.5743 173.058C58.5743 173.856 59.6663 174.29 61.5003 174.29C63.3623 174.29 64.4263 173.856 64.4263 173.058C64.4263 172.246 63.3623 171.826 61.5003 171.826ZM67.3946 164.994H69.8446V163.258H71.0346V164.994H73.4706V165.974H67.3946V164.994ZM70.4466 166.758C71.9866 166.758 73.1066 167.934 73.1066 169.586C73.1066 171.252 71.9866 172.414 70.4466 172.414C68.9066 172.414 67.8006 171.252 67.8006 169.586C67.8006 167.934 68.9066 166.758 70.4466 166.758ZM70.4466 167.78C69.5226 167.78 68.8786 168.522 68.8786 169.586C68.8786 170.65 69.5226 171.392 70.4466 171.392C71.3566 171.392 72.0286 170.65 72.0286 169.586C72.0286 168.522 71.3566 167.78 70.4466 167.78ZM76.7046 162.908H77.8526V175.228H76.7046V169.068H75.2066V174.64H74.0726V163.202H75.2066V168.074H76.7046V162.908ZM79.659 172.666H84.615V170.076H80.961V163.762H82.165V165.918H88.297V163.762H89.501V170.076H85.819V172.666H90.817V173.674H79.659V172.666ZM82.165 166.898V169.096H88.297V166.898H82.165ZM96.7393 167.29H98.6993V163.174H99.8333V174.612H98.6993V168.298H96.7393V167.29ZM94.4013 164.07H95.5633V166.338C95.5633 168.298 96.4453 170.398 98.0693 171.406L97.3833 172.344C96.2353 171.644 95.4373 170.37 95.0033 168.928C94.5553 170.51 93.6873 171.868 92.4833 172.61L91.7273 171.7C93.4353 170.692 94.4013 168.48 94.4013 166.366V164.07ZM101.205 162.908H102.367V175.228H101.205V162.908ZM104.132 172.666H106.834V169.39C105.812 168.83 105.196 167.962 105.196 166.842C105.196 164.91 107.086 163.664 109.69 163.664C112.322 163.664 114.184 164.91 114.184 166.842C114.184 167.948 113.582 168.816 112.588 169.362V172.666H115.29V173.66H104.132V172.666ZM109.69 164.616C107.758 164.616 106.386 165.498 106.386 166.842C106.386 168.2 107.758 169.068 109.69 169.068C111.636 169.068 113.008 168.2 113.008 166.842C113.008 165.498 111.636 164.616 109.69 164.616ZM108.038 172.666H111.37V169.824C110.866 169.95 110.292 170.02 109.69 170.02C109.102 170.02 108.542 169.95 108.038 169.838V172.666ZM117.432 172.89C117.866 172.89 118.174 173.198 118.174 173.646C118.174 174.094 117.866 174.416 117.432 174.416C116.984 174.416 116.662 174.094 116.662 173.646C116.662 173.198 116.984 172.89 117.432 172.89Z" fill="#767676"/>
<g clip-path="url(#clip0_267_9)">
<path d="M78.0833 88.2193H108.417C110.502 88.2193 112.208 89.9255 112.208 92.011V126.136L104.625 118.553H78.0833C75.9979 118.553 74.2916 116.846 74.2916 114.761V92.011C74.2916 89.9255 75.9979 88.2193 78.0833 88.2193Z" fill="#9D4EDD" fill-opacity="0.6"/>
</g>
<g clip-path="url(#clip1_267_9)">
<path d="M48.7917 113.886V116.3L50.4988 114.593L57.7892 107.303H83.9167C86.5544 107.303 88.7084 105.149 88.7084 102.511V79.761C88.7084 77.1233 86.5544 74.9693 83.9167 74.9693H53.5834C50.9457 74.9693 48.7917 77.1233 48.7917 79.761V113.886Z" fill="#9D4EDD" stroke="white" stroke-width="2"/>
</g>
<defs>
<clipPath id="clip0_267_9">
<rect width="45.5" height="45.5" fill="white" transform="matrix(-1 0 0 1 116 84.4276)"/>
</clipPath>
<clipPath id="clip1_267_9">
<rect width="45.5" height="45.5" fill="white" transform="translate(46 72.1776)"/>
</clipPath>
</defs>
</svg>
