<svg width="163" height="198" viewBox="0 0 163 198" fill="none" xmlns="http://www.w3.org/2000/svg">
<rect x="0.623901" y="0.177643" width="162" height="197" rx="20" fill="white"/>
<path d="M19.7719 24.5376C22.4319 24.5376 24.3779 25.8676 24.3779 27.9116C24.3779 29.7596 22.7959 31.0056 20.5279 31.2296V33.5396H25.4279V34.7856H14.1439V33.5396H19.0019V31.2296C16.7479 31.0056 15.1659 29.7456 15.1659 27.9116C15.1659 25.8676 17.1259 24.5376 19.7719 24.5376ZM19.7719 25.7556C17.9519 25.7556 16.6779 26.5816 16.6779 27.9116C16.6779 29.2276 17.9519 30.0536 19.7719 30.0536C21.5779 30.0536 22.8659 29.2276 22.8659 27.9116C22.8659 26.5816 21.5779 25.7556 19.7719 25.7556ZM27.8223 24.0056H29.3343V26.5116H36.3623V27.7436H27.8223V24.0056ZM26.3803 28.7096H37.6643V29.9416H26.3803V28.7096ZM27.6963 30.8236H36.2923V33.9876H29.2643V34.9816H36.6703V36.1576H27.7243V32.8816H34.7523V31.9996H27.6963V30.8236ZM42.6206 24.6916C44.5666 24.6916 46.0086 25.9516 46.0086 27.7156C46.0086 29.4936 44.5666 30.7396 42.6206 30.7396C40.6606 30.7396 39.2186 29.4936 39.2186 27.7156C39.2186 25.9516 40.6606 24.6916 42.6206 24.6916ZM42.6206 26.0216C41.5286 26.0216 40.7166 26.6656 40.7166 27.7156C40.7166 28.7516 41.5286 29.4236 42.6206 29.4236C43.6986 29.4236 44.5106 28.7516 44.5106 27.7156C44.5106 26.6656 43.6986 26.0216 42.6206 26.0216ZM47.3666 23.8236H48.8926V36.3256H47.3666V23.8236ZM38.6586 32.4616C40.8706 32.4616 43.9786 32.4476 46.6246 32.0416L46.7366 33.1616C44.0066 33.6936 41.0246 33.7216 38.8406 33.7216L38.6586 32.4616ZM63.2495 23.8376H64.7195V36.2976H63.2495V29.9696H61.8915V35.6816H60.4635V24.0896H61.8915V28.7096H63.2495V23.8376ZM54.4715 25.3216H59.0635V26.5676H55.9835V32.1256C57.3135 32.1116 58.4335 32.0276 59.6795 31.7896L59.8195 33.0496C58.3075 33.3436 57.0195 33.3996 55.3115 33.3996H54.4715V25.3216ZM74.5618 23.8516H76.1018V28.9896H77.8098V30.2776H76.1018V36.3116H74.5618V23.8516ZM66.1758 32.8536C67.1138 32.8536 68.1918 32.8536 69.3258 32.8256V31.6496C67.9818 31.4256 67.0998 30.5856 67.0998 29.3956C67.0998 27.9956 68.3318 27.0716 70.0958 27.0716C71.8598 27.0716 73.1058 27.9956 73.1058 29.3956C73.1058 30.5856 72.2098 31.4256 70.8658 31.6496V32.7556C71.8878 32.7136 72.9098 32.6156 73.8758 32.4896L74.0018 33.5956C71.3558 34.1136 68.4998 34.1136 66.3858 34.1136L66.1758 32.8536ZM66.3998 25.2656H69.3258V23.8936H70.8658V25.2656H73.7778V26.4836H66.3998V25.2656ZM70.0958 28.2336C69.1718 28.2336 68.5558 28.6676 68.5558 29.3956C68.5558 30.1236 69.1718 30.5576 70.0958 30.5576C71.0338 30.5576 71.6498 30.1236 71.6498 29.3956C71.6498 28.6676 71.0338 28.2336 70.0958 28.2336ZM79.9941 24.2856H81.5201V27.3516H88.5621V28.5836H79.9941V24.2856ZM78.5521 30.0256H89.8361V31.2576H78.5521V30.0256ZM79.8961 32.3356H81.4221V34.7856H88.6321V36.0316H79.8961V32.3356ZM97.375 24.7336C99.055 24.7336 100.301 26.1476 100.525 28.4296H102.849V23.8236H104.375V36.3256H102.849V29.6616H100.539C100.371 32.0696 99.097 33.5676 97.375 33.5676C95.541 33.5676 94.211 31.8596 94.211 29.1436C94.211 26.4416 95.541 24.7336 97.375 24.7336ZM97.375 26.1336C96.367 26.1336 95.667 27.2396 95.667 29.1436C95.667 31.0616 96.367 32.1816 97.375 32.1816C98.411 32.1816 99.097 31.0616 99.097 29.1436C99.097 27.2396 98.411 26.1336 97.375 26.1336ZM113.139 24.0896H114.553V26.8196H115.589V23.8516H117.045V31.0196H115.589V28.0516H114.553V30.9076H113.139V24.0896ZM106.545 24.7476H109.135V25.9656H107.945V29.1436C108.323 29.1156 108.757 29.0736 109.219 28.9616L109.359 30.1936C108.393 30.4036 107.679 30.4036 107.077 30.4036H106.545V24.7476ZM109.709 24.7476H112.425V25.9656H111.109V29.1576C111.543 29.1296 112.019 29.0736 112.551 28.9476L112.677 30.1936C111.697 30.4036 110.955 30.4036 110.255 30.4036H109.709V24.7476ZM109.387 31.4956H110.871V31.9996C110.871 33.0356 111.333 34.1276 112.397 34.8136C113.475 34.0856 113.951 32.9376 113.951 31.9996V31.4956H115.463V31.9996C115.463 33.2876 116.233 34.5476 117.843 35.0656L117.087 36.1996C115.883 35.7796 115.099 34.9816 114.679 33.9876C114.273 34.9676 113.545 35.8356 112.411 36.2976C111.249 35.8636 110.521 35.0096 110.129 34.0156C109.695 34.9676 108.911 35.7796 107.763 36.1996L107.007 35.0656C108.603 34.4916 109.387 33.2176 109.387 31.9996V31.4956ZM126.636 23.8236H128.19V28.6536H130.01V29.9276H128.19V36.2976H126.636V23.8236ZM118.922 25.0416H120.448V31.9436C122.1 31.9156 123.864 31.7616 125.698 31.3976L125.866 32.6576C123.78 33.0916 121.82 33.2036 119.958 33.2036H118.922V25.0416ZM130.724 33.5396H133.314V30.3616C132.334 29.7876 131.746 28.9056 131.746 27.7996C131.746 25.7976 133.692 24.5096 136.352 24.5096C139.026 24.5096 140.958 25.7976 140.958 27.7996C140.958 28.9056 140.37 29.7876 139.404 30.3616V33.5396H142.008V34.7856H130.724V33.5396ZM136.352 25.7136C134.518 25.7136 133.258 26.5116 133.258 27.7996C133.258 29.1016 134.518 29.8856 136.352 29.8856C138.186 29.8856 139.446 29.1016 139.446 27.7996C139.446 26.5116 138.186 25.7136 136.352 25.7136ZM134.854 33.5396H137.864V30.9356C137.402 31.0336 136.884 31.0896 136.352 31.0896C135.82 31.0896 135.316 31.0336 134.854 30.9356V33.5396ZM146.124 35.5136C145.606 35.5136 145.242 35.1496 145.242 34.6316C145.242 34.1136 145.606 33.7636 146.124 33.7636C146.642 33.7636 146.992 34.1136 146.992 34.6316C146.992 35.1496 146.642 35.5136 146.124 35.5136ZM145.354 32.4616C145.34 31.0196 145.76 30.1376 146.81 29.3676C147.832 28.6116 148.07 28.1496 148.098 27.5616C148.154 26.5816 147.426 25.8956 146.348 25.8956C145.55 25.8956 144.794 26.4696 144.472 27.2816L143.072 26.7636C143.59 25.3776 144.948 24.3976 146.348 24.3976C148.35 24.3976 149.694 25.7276 149.61 27.6316C149.554 28.6116 149.05 29.5776 147.706 30.5856C147.006 31.1036 146.852 31.4116 146.866 32.4476L145.354 32.4616Z" fill="black"/>
<path d="M30.3791 143.734H31.6391V144.672C31.6391 146.73 33.8651 148.62 36.1191 149.026L35.5731 150.034C33.6551 149.614 31.8071 148.312 31.0091 146.562C30.1971 148.312 28.3491 149.614 26.4451 150.034L25.9271 149.026C28.1391 148.606 30.3791 146.73 30.3791 144.672V143.734ZM25.4791 152.582H36.6371V153.59H25.4791V152.582ZM38.2055 144.14H43.8895V152.134H38.2055V144.14ZM42.6995 145.106H39.3955V151.154H42.6995V145.106ZM46.0035 142.922H47.2215V147.808H49.2095V148.816H47.2215V155.242H46.0035V142.922ZM51.3658 143.944H59.7378V144.924H52.5978V146.688H59.4578V147.654H52.5978V149.502H59.8498V150.496H51.3658V143.944ZM49.9518 152.666H61.1098V153.66H49.9518V152.666ZM63.2101 143.468H72.2541V144.448H70.4481V147.15H72.2121V148.116H68.3481V149.558H73.3181V150.538H62.1881V149.558H67.1441V148.116H63.2661V147.15H65.0301V144.448H63.2101V143.468ZM63.6161 151.574H64.8201V153.982H72.0861V154.976H63.6161V151.574ZM66.2481 147.15H69.2441V144.448H66.2481V147.15ZM83.7345 142.908H84.8965V155.228H83.7345V142.908ZM81.2845 143.174H82.4325V154.612H81.2845V148.662H79.8145C79.7165 151.084 78.7085 152.554 77.1825 152.554C75.6005 152.554 74.5645 150.902 74.5645 148.228C74.5645 145.568 75.6005 143.916 77.1825 143.916C78.6805 143.916 79.6745 145.344 79.8145 147.668H81.2845V143.174ZM77.1825 145.05C76.2585 145.05 75.6705 146.24 75.6705 148.228C75.6705 150.216 76.2585 151.42 77.1825 151.42C78.1345 151.42 78.7085 150.216 78.7085 148.228C78.7085 146.24 78.1345 145.05 77.1825 145.05ZM92.8068 147.052H95.6068V142.894H96.8108V155.256H95.6068V148.046H92.8068V147.052ZM89.7968 143.958H91.0008V146.114C91.0008 148.354 92.3168 150.608 94.1368 151.462L93.4228 152.442C92.0368 151.728 90.9588 150.3 90.4128 148.592C89.8668 150.398 88.7608 151.91 87.3748 152.652L86.6188 151.672C88.4528 150.776 89.7968 148.396 89.7968 146.114V143.958ZM111.42 142.908H112.582V155.228H111.42V148.83H109.782V154.598H108.648V143.188H109.782V147.822H111.42V142.908ZM102.558 144.406H107.122V145.4H103.762V151.224C105.316 151.21 106.478 151.14 107.78 150.874L107.906 151.868C106.422 152.176 105.176 152.232 103.37 152.232H102.558V144.406ZM122.676 142.922H123.894V148.116H125.756V149.138H123.894V155.242H122.676V142.922ZM114.22 151.91C115.2 151.91 116.334 151.91 117.51 151.868V150.58C116.124 150.398 115.2 149.558 115.2 148.34C115.2 146.954 116.39 146.058 118.112 146.058C119.834 146.058 121.038 146.954 121.038 148.34C121.038 149.558 120.114 150.398 118.728 150.58V151.826C119.82 151.77 120.926 151.686 121.948 151.532L122.046 152.414C119.4 152.918 116.53 152.932 114.402 152.932L114.22 151.91ZM114.43 144.392H117.51V142.936H118.728V144.392H121.78V145.358H114.43V144.392ZM118.112 146.982C117.062 146.982 116.348 147.514 116.348 148.34C116.348 149.166 117.062 149.684 118.112 149.684C119.176 149.684 119.89 149.166 119.89 148.34C119.89 147.514 119.176 146.982 118.112 146.982ZM135.906 142.908H137.068V155.228H135.906V142.908ZM133.456 143.174H134.604V154.612H133.456V148.662H131.986C131.888 151.084 130.88 152.554 129.354 152.554C127.772 152.554 126.736 150.902 126.736 148.228C126.736 145.568 127.772 143.916 129.354 143.916C130.852 143.916 131.846 145.344 131.986 147.668H133.456V143.174ZM129.354 145.05C128.43 145.05 127.842 146.24 127.842 148.228C127.842 150.216 128.43 151.42 129.354 151.42C130.306 151.42 130.88 150.216 130.88 148.228C130.88 146.24 130.306 145.05 129.354 145.05ZM25.1707 162.908H26.3327V175.228H25.1707V168.83H23.5327V174.598H22.3987V163.188H23.5327V167.822H25.1707V162.908ZM16.3087 164.406H20.8727V165.4H17.5127V171.224C19.0667 171.21 20.2287 171.14 21.5307 170.874L21.6567 171.868C20.1727 172.176 18.9267 172.232 17.1207 172.232H16.3087V164.406ZM36.469 162.922H37.687V166.926H39.493V167.934H37.687V172.162H36.469V162.922ZM28.139 164.378H31.177V162.922H32.381V164.378H35.419V165.358H28.139V164.378ZM31.779 166.002C33.529 166.002 34.733 166.926 34.733 168.312C34.733 169.712 33.529 170.622 31.779 170.622C30.029 170.622 28.825 169.712 28.825 168.312C28.825 166.926 30.029 166.002 31.779 166.002ZM31.779 166.954C30.701 166.954 29.973 167.472 29.973 168.312C29.973 169.152 30.701 169.67 31.779 169.67C32.843 169.67 33.571 169.152 33.571 168.312C33.571 167.472 32.843 166.954 31.779 166.954ZM29.987 171.42H31.191V173.982H38.233V174.962H29.987V171.42ZM50.5599 165.092H52.4919V162.922H53.7099V170.51H52.4919V168.298H50.5599V167.29H52.4919V166.058H50.5599V165.092ZM43.9239 163.818H50.4059V164.826H49.2159V168.648C49.7479 168.606 50.2659 168.55 50.7559 168.494L50.8259 169.404C48.4599 169.782 45.7019 169.81 43.7139 169.81L43.5879 168.802L45.0999 168.788V164.826H43.9239V163.818ZM49.6499 170.748C52.2119 170.748 53.7659 171.56 53.7659 172.974C53.7659 174.388 52.2119 175.214 49.6499 175.214C47.0739 175.214 45.5339 174.388 45.5339 172.974C45.5339 171.56 47.0739 170.748 49.6499 170.748ZM49.6499 171.7C47.8019 171.7 46.7239 172.176 46.7239 172.974C46.7239 173.8 47.8019 174.29 49.6499 174.29C51.4839 174.29 52.5619 173.8 52.5619 172.974C52.5619 172.176 51.4839 171.7 49.6499 171.7ZM46.2899 168.774L48.0399 168.718V164.826H46.2899V168.774ZM64.0842 162.894H65.3162V167.864H67.2342V168.886H65.3162V175.228H64.0842V162.894ZM62.1242 164.224C62.1242 167.752 60.5422 170.916 56.5382 172.918L55.8522 171.994C58.9602 170.426 60.6262 168.116 60.8922 165.218H56.4542V164.224H62.1242ZM68.0465 168.62H79.2045V169.53H68.0465V168.62ZM69.3625 170.468H77.8185V173.142H70.5945V174.22H78.1965V175.088H69.3905V172.316H76.6285V171.336H69.3625V170.468ZM69.4605 163.258H77.7765V165.876H70.6645V166.87H78.0005V167.752H69.4885V165.064H76.5865V164.126H69.4605V163.258ZM91.8814 162.908H93.0994V165.708H94.9054V166.716H93.0994V169.88H91.8814V162.908ZM85.3014 170.524H93.0994V175.06H85.3014V170.524ZM91.9234 171.49H86.4914V174.08H91.9234V171.49ZM84.0974 163.524H85.3154V167.976C86.9954 167.962 88.7594 167.836 90.6774 167.444L90.8174 168.424C88.7594 168.858 86.8974 168.984 85.0914 168.984H84.0974V163.524ZM101.934 164.224C101.934 164.924 101.878 165.596 101.752 166.254H104.664V162.908H105.868V175.228H104.664V170.552H101.346V169.558H104.664V167.234H101.514C100.828 169.53 99.2317 171.504 96.3477 172.932L95.7177 171.98C98.8957 170.398 100.492 168.102 100.73 165.218H96.2637V164.224H101.934ZM107.982 169.908H119.126V170.902H114.128V175.242H112.924V170.902H107.982V169.908ZM109.018 163.664H118.048V164.644H114.226V164.658C114.226 166.226 116.242 167.64 118.482 167.948L118.02 168.928C116.074 168.606 114.296 167.584 113.554 166.142C112.798 167.584 111.034 168.606 109.088 168.928L108.626 167.948C110.866 167.64 112.868 166.226 112.868 164.658V164.644H109.018V163.664ZM125.062 167.29H127.022V163.174H128.156V174.612H127.022V168.298H125.062V167.29ZM122.724 164.07H123.886V166.338C123.886 168.298 124.768 170.398 126.392 171.406L125.706 172.344C124.558 171.644 123.76 170.37 123.326 168.928C122.878 170.51 122.01 171.868 120.806 172.61L120.05 171.7C121.758 170.692 122.724 168.48 122.724 166.366V164.07ZM129.528 162.908H130.69V175.228H129.528V162.908ZM132.455 172.666H135.157V169.39C134.135 168.83 133.519 167.962 133.519 166.842C133.519 164.91 135.409 163.664 138.013 163.664C140.645 163.664 142.507 164.91 142.507 166.842C142.507 167.948 141.905 168.816 140.911 169.362V172.666H143.613V173.66H132.455V172.666ZM138.013 164.616C136.081 164.616 134.709 165.498 134.709 166.842C134.709 168.2 136.081 169.068 138.013 169.068C139.959 169.068 141.331 168.2 141.331 166.842C141.331 165.498 139.959 164.616 138.013 164.616ZM136.361 172.666H139.693V169.824C139.189 169.95 138.615 170.02 138.013 170.02C137.425 170.02 136.865 169.95 136.361 169.838V172.666ZM145.755 172.89C146.189 172.89 146.497 173.198 146.497 173.646C146.497 174.094 146.189 174.416 145.755 174.416C145.307 174.416 144.985 174.094 144.985 173.646C144.985 173.198 145.307 172.89 145.755 172.89Z" fill="#767676"/>
<path d="M96.6895 61.2719L70.556 61.2458C67.6813 61.2458 65.3293 63.5978 65.3293 66.4725V113.513C65.3293 116.387 67.6813 118.739 70.556 118.739H96.6895C99.5642 118.739 101.916 116.387 101.916 113.513V66.4725C101.916 63.5978 99.5642 61.2719 96.6895 61.2719ZM96.6895 108.286H70.556V71.6992H96.6895V108.286Z" fill="#D9D9D9"/>
<path d="M111.709 52.1824C111.709 51.0752 112.609 50.1672 113.71 50.2785C115.639 50.4733 117.533 50.949 119.33 51.6936C121.746 52.6944 123.942 54.1613 125.791 56.0106C127.64 57.8599 129.107 60.0553 130.108 62.4715C130.853 64.269 131.328 66.1626 131.523 68.0913C131.634 69.1929 130.726 70.0927 129.619 70.0927C128.512 70.0927 127.627 69.1916 127.488 68.0932C127.311 66.6915 126.947 65.3167 126.404 64.0059C125.604 62.0762 124.433 60.3228 122.956 58.8458C121.479 57.3688 119.725 56.1973 117.796 55.3979C116.485 54.855 115.11 54.491 113.708 54.3134C112.61 54.1742 111.709 53.2896 111.709 52.1824Z" fill="#D9D9D9"/>
<path d="M51.3792 123.369C51.0927 124.438 49.9885 125.083 48.9532 124.69C47.1407 124.003 45.4348 123.053 43.8913 121.869C41.8164 120.276 40.0755 118.291 38.7678 116.026C37.4602 113.762 36.6115 111.261 36.2701 108.668C36.0162 106.739 36.0467 104.787 36.3577 102.874C36.5353 101.781 37.6453 101.147 38.7148 101.433C39.7843 101.72 40.4055 102.819 40.2556 103.916C40.0644 105.316 40.0602 106.738 40.2454 108.145C40.518 110.216 41.1959 112.213 42.2402 114.022C43.2846 115.831 44.675 117.416 46.3321 118.688C47.4578 119.551 48.6915 120.259 49.9994 120.793C51.0244 121.212 51.6658 122.299 51.3792 123.369Z" fill="#D9D9D9"/>
<path d="M109.623 60.0717C109.765 58.9841 110.766 58.2049 111.828 58.4798C114.575 59.1909 117.097 60.6227 119.123 62.6428C121.15 64.663 122.589 67.18 123.309 69.9249C123.587 70.9859 122.811 71.9897 121.724 72.1345C120.637 72.2794 119.654 71.5074 119.333 70.4587C118.757 68.5788 117.726 66.8581 116.319 65.4558C114.912 64.0535 113.188 63.0281 111.307 62.458C110.257 62.14 109.482 61.1594 109.623 60.0717Z" fill="#D9D9D9"/>
<path d="M55.4356 116.288C55.0175 117.302 53.8486 117.796 52.8941 117.255C50.4246 115.857 48.3596 113.822 46.925 111.346C45.4904 108.87 44.7512 106.066 44.7664 103.228C44.7723 102.132 45.7817 101.363 46.8693 101.504C47.957 101.646 48.7067 102.646 48.7456 103.742C48.8155 105.707 49.3658 107.636 50.3616 109.354C51.3575 111.073 52.7572 112.51 54.4273 113.547C55.3589 114.126 55.8538 115.274 55.4356 116.288Z" fill="#D9D9D9"/>
</svg>
