<svg width="140" height="198" viewBox="0 0 140 198" fill="none" xmlns="http://www.w3.org/2000/svg">
<rect y="0.177643" width="162" height="197" rx="20" fill="white"/>
<path d="M29.6821 25.0696H36.6681V26.3436H33.9521V27.3796C33.9521 29.4376 35.1561 31.5796 37.1301 32.4196L36.2761 33.6376C34.8341 32.9936 33.7701 31.6916 33.1961 30.1096C32.6361 31.8176 31.5581 33.2596 30.1021 33.9456L29.2201 32.7276C31.1941 31.8176 32.3981 29.5076 32.3981 27.3796V26.3436H29.6821V25.0696ZM38.0261 23.8516H39.5661V36.3116H38.0261V23.8516ZM42.9545 24.4396H51.4385V25.4056C51.4385 26.3996 51.4385 27.4916 51.1445 28.9616H52.8245V30.2076H41.5405V28.9616H49.6185C49.9125 27.6176 49.9405 26.6096 49.9405 25.6856H42.9545V24.4396ZM42.8845 31.6496H51.4245V36.1716H42.8845V31.6496ZM49.9265 32.8536H44.3965V34.9396H49.9265V32.8536ZM61.8333 24.1596H63.4153V24.6496C63.4153 26.1196 65.1233 27.6316 67.6433 27.9956L67.0693 29.1996C65.0393 28.8776 63.4293 27.8836 62.6453 26.5676C61.8473 27.9116 60.2373 28.9056 58.1933 29.2276L57.6053 28.0236C60.1533 27.6596 61.8333 26.1476 61.8333 24.6496V24.1596ZM56.9893 30.0536H68.2733V31.2856H63.5273V33.5536H61.9873V31.2856H56.9893V30.0536ZM58.3473 32.4336H59.8873V34.8276H67.0273V36.0736H58.3473V32.4336ZM77.4437 23.8516H78.9837V27.4356H80.7197V28.6956H78.9837V32.8256H77.4437V23.8516ZM75.6377 24.7896C75.6377 28.1076 73.4957 30.4596 69.8277 31.5376L69.1837 30.3196C72.0117 29.4936 73.7197 27.9396 73.9717 26.0216H69.7157V24.7896H75.6377ZM71.0457 31.9156H72.5857V34.8276H79.4597V36.0596H71.0457V31.9156ZM85.48 24.6916C87.426 24.6916 88.868 25.9516 88.868 27.7156C88.868 29.4936 87.426 30.7396 85.48 30.7396C83.52 30.7396 82.078 29.4936 82.078 27.7156C82.078 25.9516 83.52 24.6916 85.48 24.6916ZM85.48 26.0216C84.388 26.0216 83.576 26.6656 83.576 27.7156C83.576 28.7516 84.388 29.4236 85.48 29.4236C86.558 29.4236 87.37 28.7516 87.37 27.7156C87.37 26.6656 86.558 26.0216 85.48 26.0216ZM90.226 23.8236H91.752V36.3256H90.226V23.8236ZM81.518 32.4616C83.73 32.4616 86.838 32.4476 89.484 32.0416L89.596 33.1616C86.866 33.6936 83.884 33.7216 81.7 33.7216L81.518 32.4616ZM105.703 23.8376H107.243V36.2976H105.703V23.8376ZM103.561 25.1396C103.561 28.8776 102.147 32.0136 97.8069 34.1136L97.0089 32.8956C100.243 31.3416 101.713 29.2276 101.979 26.3856H97.6249V25.1396H103.561ZM109.161 30.3056H120.445V31.5236H115.699V33.6656H114.159V31.5236H109.161V30.3056ZM110.519 32.6576H112.045V34.8276H119.199V36.0736H110.519V32.6576ZM110.631 24.2296H112.157V25.6296H117.449V24.2296H118.989V29.3116H110.631V24.2296ZM112.157 26.7916V28.0936H117.449V26.7916H112.157ZM121.412 30.2776H132.668V31.5096H121.412V30.2776ZM122.812 32.4476H124.338V34.8276H131.408V36.0736H122.812V32.4476ZM127.04 24.2296C129.728 24.2296 131.506 25.1956 131.506 26.7636C131.506 28.3456 129.728 29.3116 127.04 29.3116C124.338 29.3116 122.574 28.3456 122.574 26.7636C122.574 25.1956 124.338 24.2296 127.04 24.2296ZM127.04 25.4756C125.248 25.4756 124.156 25.9236 124.156 26.7636C124.156 27.6176 125.248 28.0796 127.04 28.0796C128.832 28.0796 129.91 27.6176 129.91 26.7636C129.91 25.9236 128.832 25.4756 127.04 25.4756ZM58.0528 44.7336C59.7328 44.7336 60.9788 46.1476 61.2028 48.4296H63.5268V43.8236H65.0528V56.3256H63.5268V49.6616H61.2168C61.0488 52.0696 59.7748 53.5676 58.0528 53.5676C56.2188 53.5676 54.8888 51.8596 54.8888 49.1436C54.8888 46.4416 56.2188 44.7336 58.0528 44.7336ZM58.0528 46.1336C57.0448 46.1336 56.3448 47.2396 56.3448 49.1436C56.3448 51.0616 57.0448 52.1816 58.0528 52.1816C59.0888 52.1816 59.7748 51.0616 59.7748 49.1436C59.7748 47.2396 59.0888 46.1336 58.0528 46.1336ZM68.8891 52.1256H70.4291V54.8276H77.7091V56.0596H68.8891V52.1256ZM75.8751 43.8516H77.4011V52.8816H75.8751V48.4156H73.9991V47.1836H75.8751V43.8516ZM67.1531 44.8176H70.3731V46.0496H68.6791V49.7876C69.2671 49.7596 69.8411 49.7036 70.4851 49.5776L70.5971 50.8236C69.5611 51.0196 68.7491 51.0336 67.7551 51.0336H67.1531V44.8176ZM71.0031 44.8176H74.4611V46.0496H72.5151V49.8016C73.4671 49.7876 74.0971 49.7316 74.8111 49.5636L74.9511 50.7956C73.9851 51.0056 73.1871 51.0336 71.6471 51.0336H71.0031V44.8176ZM87.2995 43.8236H88.8535V48.7096H90.6875V49.9836H88.8535V56.2976H87.2995V43.8236ZM85.5775 45.1396C85.5775 48.8076 84.0795 51.9996 79.9775 54.0576L79.1095 52.8956C82.1195 51.3556 83.7295 49.2276 84.0235 46.3856H79.7675V45.1396H85.5775ZM91.4018 53.5396H93.9918V50.3616C93.0118 49.7876 92.4238 48.9056 92.4238 47.7996C92.4238 45.7976 94.3698 44.5096 97.0298 44.5096C99.7038 44.5096 101.636 45.7976 101.636 47.7996C101.636 48.9056 101.048 49.7876 100.082 50.3616V53.5396H102.686V54.7856H91.4018V53.5396ZM97.0298 45.7136C95.1958 45.7136 93.9358 46.5116 93.9358 47.7996C93.9358 49.1016 95.1958 49.8856 97.0298 49.8856C98.8638 49.8856 100.124 49.1016 100.124 47.7996C100.124 46.5116 98.8638 45.7136 97.0298 45.7136ZM95.5318 53.5396H98.5418V50.9356C98.0798 51.0336 97.5618 51.0896 97.0298 51.0896C96.4978 51.0896 95.9938 51.0336 95.5318 50.9356V53.5396ZM106.802 55.5136C106.284 55.5136 105.92 55.1496 105.92 54.6316C105.92 54.1136 106.284 53.7636 106.802 53.7636C107.32 53.7636 107.67 54.1136 107.67 54.6316C107.67 55.1496 107.32 55.5136 106.802 55.5136ZM106.032 52.4616C106.018 51.0196 106.438 50.1376 107.488 49.3676C108.51 48.6116 108.748 48.1496 108.776 47.5616C108.832 46.5816 108.104 45.8956 107.026 45.8956C106.228 45.8956 105.472 46.4696 105.15 47.2816L103.75 46.7636C104.268 45.3776 105.626 44.3976 107.026 44.3976C109.028 44.3976 110.372 45.7276 110.288 47.6316C110.232 48.6116 109.728 49.5776 108.384 50.5856C107.684 51.1036 107.53 51.4116 107.544 52.4476L106.032 52.4616Z" fill="black"/>
<circle cx="81" cy="125.178" r="40" fill="#D9D9D9"/>
<path d="M81 147.657L77.8103 144.753C66.4814 134.48 59.0021 127.682 59.0021 119.389C59.0021 112.592 64.3256 107.29 71.101 107.29C74.9286 107.29 78.6023 109.072 81 111.866C83.3978 109.072 87.0715 107.29 90.8991 107.29C97.6745 107.29 102.998 112.592 102.998 119.389C102.998 127.682 95.5187 134.48 84.1898 144.753L81 147.657Z" fill="white"/>
<rect x="53.6785" y="0.177643" width="86.3215" height="197" fill="url(#paint0_linear_267_13)" fill-opacity="0.7"/>
<defs>
<linearGradient id="paint0_linear_267_13" x1="53.6785" y1="98.6776" x2="140" y2="98.6776" gradientUnits="userSpaceOnUse">
<stop stop-color="#D9D9D9" stop-opacity="0"/>
<stop offset="1" stop-color="#D9D9D9"/>
</linearGradient>
</defs>
</svg>
