<svg width="162" height="198" viewBox="0 0 162 198" fill="none" xmlns="http://www.w3.org/2000/svg">
<rect y="0.177643" width="162" height="197" rx="20" fill="white"/>
<path d="M140 65.1776H20" stroke="#D9D9D9" stroke-width="0.75" stroke-linecap="round"/>
<path d="M140 129.178H20" stroke="#D9D9D9" stroke-width="0.75" stroke-linecap="round"/>
<path d="M51.212 21.8516H52.752V28.9076H51.212V21.8516ZM44.562 29.5236H52.752V34.1576H44.562V29.5236ZM51.254 30.7416H46.06V32.9396H51.254V30.7416ZM45.5 22.3136H47.054V23.5036C47.054 25.1136 48.104 26.6116 50.064 27.2276L49.322 28.4176C47.88 27.9696 46.858 27.0456 46.298 25.8416C45.738 27.1296 44.688 28.1516 43.204 28.6416L42.462 27.4376C44.464 26.7936 45.5 25.1556 45.5 23.5036V22.3136ZM62.9303 21.8516H64.4703V24.9456H66.1923V26.2196H64.4703V29.3276H62.9303V21.8516ZM56.2383 29.9296H64.4703V34.3116H62.9303V31.1616H56.2383V29.9296ZM55.1463 22.6216H56.6723V24.3856H59.5283V22.6216H61.0403V28.6136H55.1463V22.6216ZM56.6723 25.5756V27.4096H59.5283V25.5756H56.6723ZM71.7787 22.2436H73.4027V22.8736C73.4027 24.4276 75.1387 26.0376 77.7567 26.4016L77.1547 27.6196C75.0547 27.2976 73.4027 26.2616 72.5907 24.8616C71.7927 26.2756 70.1407 27.2976 68.0267 27.6196L67.4247 26.4016C70.0567 26.0376 71.7787 24.4556 71.7787 22.8736V22.2436ZM66.9487 28.7116H78.2187V29.9716H73.3187V34.3116H71.7787V29.9716H66.9487V28.7116Z" fill="#FF0084"/>
<path d="M45.184 49.2016L43.12 48.9776L43.536 42.5456H50.08V44.3536H45.52L45.36 46.7216C45.84 46.5456 46.352 46.4336 46.832 46.4336C49.312 46.4336 51.072 48.0816 51.072 50.4176C51.072 52.7536 49.312 54.4016 46.832 54.4016C44.864 54.4016 43.168 53.1056 42.736 51.2496L44.736 50.7696C44.96 51.7616 45.824 52.4656 46.832 52.4656C48.112 52.4656 49.008 51.6176 49.008 50.4176C49.008 49.2176 48.112 48.3696 46.832 48.3696C46.32 48.3696 45.632 48.7216 45.184 49.2016ZM55.7489 54.3216H53.4769L57.9729 44.2576L52.8209 44.2736V42.4656H60.0849L60.2449 44.2576L55.7489 54.3216Z" fill="black"/>
<path d="M28 34.411L27.0333 33.531C23.6 30.4176 21.3333 28.3576 21.3333 25.8443C21.3333 23.7843 22.9467 22.1776 25 22.1776C26.16 22.1776 27.2733 22.7176 28 23.5643C28.7267 22.7176 29.84 22.1776 31 22.1776C33.0533 22.1776 34.6667 23.7843 34.6667 25.8443C34.6667 28.3576 32.4 30.4176 28.9667 33.531L28 34.411Z" fill="#FF0084"/>
<path d="M64.891 54.1776V48.4016H66.643C67.571 48.4016 68.227 49.0496 68.227 49.9696C68.227 50.3376 68.027 50.7696 67.723 51.0656L67.915 51.1696C68.363 51.4656 68.683 52.0416 68.683 52.5696C68.683 53.5136 68.027 54.1776 67.091 54.1776H64.891ZM67.099 53.6656C67.699 53.6656 68.123 53.2176 68.123 52.5856C68.123 51.9136 67.699 51.4416 67.099 51.4416H65.467V53.6656H67.099ZM66.787 50.9296C67.307 50.9056 67.675 50.5056 67.675 49.9536C67.675 49.3456 67.251 48.9136 66.651 48.9136H65.467V50.9296H66.787ZM71.9059 51.2656C72.6179 51.2656 73.1139 50.7776 73.1139 50.0896C73.1139 49.4016 72.6099 48.9136 71.8979 48.9136H70.5059L70.5139 51.2656H71.9059ZM71.9219 48.4016C72.9539 48.4016 73.6739 49.0976 73.6739 50.0896C73.6739 51.0816 72.9539 51.7776 71.9219 51.7776H70.5139V54.1776H69.9379V48.4016H71.9219ZM77.2996 53.0816L75.4436 49.6016V54.1776H74.8676V48.4016H75.4436L77.5876 52.3936L79.7316 48.4016H80.3156V54.1776H79.7396V49.6016L77.8756 53.0816H77.2996Z" fill="#767676"/>
<rect x="153" y="30.1776" width="3" height="40" rx="1.5" fill="#D9D9D9"/>
<path d="M47.648 106.546V118.258L45.584 118.226V108.706L43.36 109.762L42.608 107.97L45.6 106.546H47.648ZM54.0523 116.562C55.3003 116.562 56.1803 115.666 56.1803 114.418C56.1803 113.154 55.3003 112.258 54.0523 112.258C52.8203 112.258 51.9403 113.154 51.9403 114.418C51.9403 115.666 52.8203 116.562 54.0523 116.562ZM49.8763 114.418C49.8763 113.554 50.2122 112.786 50.5483 112.162L53.7003 106.498H56.0683L53.8123 110.498C53.9083 110.482 54.0043 110.466 54.1163 110.466C56.5483 110.498 58.2443 112.114 58.2443 114.418C58.2443 116.738 56.5163 118.354 54.0523 118.354C51.6043 118.354 49.8763 116.738 49.8763 114.418Z" fill="black"/>
<path d="M44.336 100.45H44.944V101.754C45.616 101.722 46.296 101.666 46.936 101.562L46.984 102.002C45.408 102.298 43.688 102.306 42.432 102.306L42.352 101.802C42.928 101.802 43.616 101.802 44.336 101.778V100.45ZM42.728 97.6816H44.336V96.8096H44.944V97.6816H46.576V98.1776H44.936C44.952 99.0976 45.704 99.8416 46.72 100.146L46.44 100.61C45.616 100.354 44.952 99.8176 44.64 99.0976C44.344 99.8496 43.68 100.418 42.848 100.69L42.568 100.218C43.592 99.9056 44.32 99.1296 44.336 98.1776H42.728V97.6816ZM47.4 96.7536H48V103.77H47.4V96.7536ZM50.1282 97.1856H54.8322V97.7216C54.8322 98.3216 54.8322 99.0336 54.6482 99.9936H55.6562V100.49H49.3122V99.9936H54.0482C54.2402 99.0256 54.2402 98.3216 54.2402 97.7216V97.6736H50.1282V97.1856ZM50.1522 101.29H50.7522V103.106H55.0402V103.602H50.1522V101.29Z" fill="#767676"/>
<path d="M67.4 111.762H68V118.762H67.4V111.762ZM62.352 116.898C62.944 116.898 63.624 116.898 64.328 116.874V116.098C63.496 116.01 62.96 115.53 62.96 114.826C62.96 114.042 63.624 113.53 64.624 113.53C65.624 113.53 66.304 114.042 66.304 114.826C66.304 115.522 65.76 116.002 64.936 116.098V116.85C65.616 116.818 66.304 116.77 66.944 116.682L66.984 117.13C65.432 117.394 63.728 117.41 62.44 117.41L62.352 116.898ZM62.504 112.626H64.328V111.762H64.936V112.626H66.76V113.114H62.504V112.626ZM64.624 113.994C63.976 113.994 63.52 114.322 63.52 114.826C63.52 115.322 63.976 115.642 64.624 115.642C65.288 115.642 65.736 115.322 65.736 114.826C65.736 114.322 65.288 113.994 64.624 113.994ZM71.6082 112.066L69.9362 118.562H69.3602L71.0402 112.066H71.6082ZM72.4448 115.474H78.7888V115.962H75.9648V117.346H75.3568V115.962H72.4448V115.474ZM73.2608 116.706H73.8528V118.106H78.0848V118.61H73.2608V116.706ZM73.3008 111.978H73.8928V112.89H77.3488V111.978H77.9488V114.778H73.3008V111.978ZM73.8928 113.362V114.29H77.3488V113.362H73.8928Z" fill="#767676"/>
<path d="M42.994 78.4896H47.32V76.9916H48.874V78.4896H53.2V79.7216H42.994V78.4896ZM42.476 86.7076H47.32V85.1676C45.206 84.9996 43.918 84.1456 43.918 82.7736C43.918 81.2616 45.514 80.3656 48.09 80.3656C50.652 80.3656 52.248 81.2616 52.248 82.7736C52.248 84.1316 50.974 84.9996 48.874 85.1676V86.7076H53.76V87.9536H42.476V86.7076ZM48.09 81.5556C46.424 81.5556 45.486 81.9896 45.486 82.7736C45.486 83.5716 46.424 83.9916 48.09 83.9916C49.742 83.9916 50.68 83.5716 50.68 82.7736C50.68 81.9896 49.742 81.5556 48.09 81.5556ZM56.0703 85.0976H57.5823V86.0076H63.0563V85.0976H64.5823V89.1576H56.0703V85.0976ZM57.5823 87.0996V88.0096H63.0563V87.0996H57.5823ZM55.2583 77.7476H59.5703V76.6976H61.1103V77.7476H65.3523V78.9096H55.2583V77.7476ZM60.3403 79.2736C62.9863 79.2736 64.4423 79.8616 64.4423 81.0096C64.4423 82.1576 62.9863 82.7316 60.3403 82.7316C57.6943 82.7316 56.2243 82.1576 56.2243 81.0096C56.2243 79.8616 57.6943 79.2736 60.3403 79.2736ZM60.3403 80.3096C58.6883 80.3096 57.8763 80.5476 57.8763 81.0096C57.8763 81.4856 58.6883 81.7096 60.3403 81.7096C61.9923 81.7096 62.8043 81.4856 62.8043 81.0096C62.8043 80.5476 61.9923 80.3096 60.3403 80.3096ZM54.7123 83.3336H65.9683V84.5376H54.7123V83.3336ZM71.7787 77.2436H73.4027V77.8736C73.4027 79.4276 75.1387 81.0376 77.7567 81.4016L77.1547 82.6196C75.0547 82.2976 73.4027 81.2616 72.5907 79.8616C71.7927 81.2756 70.1407 82.2976 68.0267 82.6196L67.4247 81.4016C70.0567 81.0376 71.7787 79.4556 71.7787 77.8736V77.2436ZM66.9487 83.7116H78.2187V84.9716H73.3187V89.3116H71.7787V84.9716H66.9487V83.7116Z" fill="#09A1FF"/>
<path d="M28 76.1776C28.1326 76.1776 28.2598 76.2303 28.3536 76.3241C28.4473 76.4179 28.5 76.545 28.5 76.6776V81.9206L29 82.2776V79.8976C29 78.9476 29.77 78.1776 30.72 78.1776C31.244 78.1776 31.743 78.4476 32.163 78.7696C32.594 79.1016 33.01 79.5426 33.379 79.9986C34.115 80.9066 34.726 81.9446 34.959 82.4786C35.135 82.8836 35.352 83.6386 35.515 84.4896C35.68 85.3466 35.798 86.3466 35.755 87.2486C35.715 88.1156 35.523 89.0386 34.918 89.5786C34.248 90.1786 33.296 90.1346 32.177 89.5746L30.382 88.6776C29.9667 88.47 29.6175 88.1509 29.3734 87.7559C29.1293 87.361 29 86.9059 29 86.4416V83.5066L28 82.7916L27 83.5066V82.3916C26.9 82.3916 26.798 82.4216 26.71 82.4846L24.21 84.2706C24.1542 84.3078 24.1065 84.3557 24.0696 84.4117C24.0328 84.4676 24.0075 84.5304 23.9954 84.5963C23.9832 84.6621 23.9845 84.7298 23.999 84.7952C24.0135 84.8606 24.041 84.9224 24.0799 84.977C24.1188 85.0315 24.1682 85.0777 24.2253 85.1128C24.2824 85.1479 24.3459 85.1711 24.4122 85.1812C24.4784 85.1912 24.546 85.1879 24.6109 85.1713C24.6758 85.1547 24.7367 85.1252 24.79 85.0846L27 83.5066V86.4416C27 86.9059 26.8707 87.361 26.6266 87.7559C26.3825 88.1509 26.0333 88.47 25.618 88.6776L23.823 89.5746C22.703 90.1346 21.753 90.1776 21.082 89.5786C20.477 89.0386 20.284 88.1156 20.244 87.2486C20.202 86.3466 20.32 85.3466 20.484 84.4896C20.648 83.6376 20.864 82.8836 21.042 82.4776C21.274 81.9446 21.885 80.9066 22.621 79.9986C22.991 79.5426 23.406 79.1016 23.837 78.7696C24.257 78.4476 24.756 78.1776 25.28 78.1776C26.23 78.1776 27 78.9476 27 79.8976V82.2776L27.5 81.9206V76.6776C27.5 76.545 27.5527 76.4179 27.6465 76.3241C27.7402 76.2303 27.8674 76.1776 28 76.1776ZM31.21 85.0846C31.2633 85.1252 31.3242 85.1547 31.3891 85.1713C31.454 85.1879 31.5216 85.1912 31.5879 85.1812C31.6541 85.1711 31.7176 85.1479 31.7747 85.1128C31.8318 85.0777 31.8812 85.0315 31.9201 84.977C31.959 84.9224 31.9865 84.8606 32.001 84.7952C32.0155 84.7298 32.0168 84.6621 32.0046 84.5963C31.9925 84.5304 31.9672 84.4676 31.9304 84.4117C31.8935 84.3557 31.8458 84.3078 31.79 84.2706L29.29 82.4846C29.2054 82.4242 29.104 82.3917 29 82.3916V83.5066L31.21 85.0846Z" fill="#09A1FF"/>
<path d="M45.374 141.594H46.914V143.036C46.914 144.66 47.908 146.228 49.854 146.886L49.07 148.09C47.698 147.628 46.718 146.676 46.172 145.472C45.64 146.802 44.618 147.838 43.162 148.356L42.336 147.152C44.366 146.466 45.374 144.8 45.374 143.022V141.594ZM50.68 140.838H52.22V144.534H53.956V145.808H52.22V149.98H50.68V140.838ZM44.324 149.112H45.864V151.828H52.71V153.06H44.324V149.112ZM54.7123 150.512H59.5283V147.642H61.0683V150.512H65.9963V151.772H54.7123V150.512ZM59.4863 141.58H61.1103V142.504C61.1103 144.38 62.9723 146.242 65.5623 146.662L64.9043 147.964C62.8043 147.544 61.1103 146.326 60.2983 144.716C59.4723 146.326 57.7643 147.544 55.6783 147.964L55.0483 146.662C57.6383 146.242 59.4863 144.352 59.4863 142.504V141.58ZM66.9487 150.582H71.7927V148.132H67.9147V146.9H69.6507V143.162H67.8587V141.93H77.2527V143.162H75.4747V146.9H77.2247V148.132H73.3187V150.582H78.2327V151.842H66.9487V150.582ZM71.1907 146.9H73.9487V143.162H71.1907V146.9ZM87.431 140.852H88.971V145.99H90.679V147.278H88.971V153.312H87.431V140.852ZM79.045 149.854C79.983 149.854 81.061 149.854 82.195 149.826V148.65C80.851 148.426 79.969 147.586 79.969 146.396C79.969 144.996 81.201 144.072 82.965 144.072C84.729 144.072 85.975 144.996 85.975 146.396C85.975 147.586 85.079 148.426 83.735 148.65V149.756C84.757 149.714 85.779 149.616 86.745 149.49L86.871 150.596C84.225 151.114 81.369 151.114 79.255 151.114L79.045 149.854ZM79.269 142.266H82.195V140.894H83.735V142.266H86.647V143.484H79.269V142.266ZM82.965 145.234C82.041 145.234 81.425 145.668 81.425 146.396C81.425 147.124 82.041 147.558 82.965 147.558C83.903 147.558 84.519 147.124 84.519 146.396C84.519 145.668 83.903 145.234 82.965 145.234ZM92.7793 141.748H101.347V142.98H94.3193V146.494H101.459V147.726H97.8053V150.568H102.705V151.828H91.4213V150.568H96.2793V147.726H92.7793V141.748Z" fill="#09A1FF"/>
<path d="M49.92 161.546V168.634H51.232V170.41H49.92V173.258H47.872V170.41H42.88L42.72 168.634L47.968 161.546H49.92ZM45.136 168.634H47.872V164.906L45.136 168.634ZM56.8495 163.21C55.6015 163.21 54.7215 164.106 54.7215 165.354C54.7215 166.618 55.6015 167.514 56.8495 167.514C58.0815 167.514 58.9615 166.618 58.9615 165.354C58.9615 164.106 58.0815 163.21 56.8495 163.21ZM61.0255 165.354C61.0255 166.218 60.6895 166.986 60.3535 167.61L57.2015 173.274H54.8335L57.0895 169.274C56.9935 169.29 56.8975 169.306 56.7855 169.306C54.3535 169.274 52.6575 167.658 52.6575 165.354C52.6575 163.034 54.3855 161.418 56.8495 161.418C59.2975 161.418 61.0255 163.034 61.0255 165.354Z" fill="black"/>
<path d="M69.539 170.922C69.539 170.386 69.203 170.01 68.723 170.01C68.163 170.01 67.771 170.354 67.771 170.85V173.178H67.195V170.922C67.195 170.386 66.867 170.01 66.395 170.01C65.827 170.01 65.435 170.482 65.435 171.01V173.178H64.859V169.49H65.435V170.034C65.659 169.714 66.043 169.49 66.395 169.49C66.859 169.49 67.323 169.77 67.531 170.178C67.771 169.77 68.251 169.49 68.723 169.49C69.531 169.49 70.115 170.058 70.115 170.866V173.178H69.539V170.922ZM71.1922 167.562H71.7682V173.178H71.1922V167.562ZM74.9359 167.066L73.2639 173.562H72.6879L74.3679 167.066H74.9359ZM75.7725 170.474H82.1165V170.962H79.2925V172.346H78.6845V170.962H75.7725V170.474ZM76.5885 171.706H77.1805V173.106H81.4125V173.61H76.5885V171.706ZM76.6285 166.978H77.2205V167.89H80.6765V166.978H81.2765V169.778H76.6285V166.978ZM77.2205 168.362V169.29H80.6765V168.362H77.2205Z" fill="#767676"/>
<path d="M22.1874 149.367C22.5223 148.195 23.326 147.479 24.4309 147.258C24.8929 145.832 26.0914 145.122 27.4709 145.122C27.6252 145.122 27.7723 145.135 27.9063 145.155C28.4486 144.358 29.2857 143.963 30.3572 143.977C30.1363 143.401 29.5066 142.905 28.5023 142.905C28.2077 142.905 27.9666 142.959 27.712 143.039C27.1629 142.242 26.2923 141.747 25.3014 141.747C23.7614 141.747 22.4823 142.973 22.4017 144.499C21.2232 144.74 20.3594 145.751 20.3594 146.977C20.3594 148.075 21.0292 149.019 22.1874 149.367ZM25.2746 152.609H33.0223C34.5892 152.609 35.6406 151.497 35.6406 150.097C35.6406 148.872 34.77 147.854 33.5983 147.62C33.518 146.1 32.2657 144.861 30.7189 144.861C29.7074 144.861 28.8237 145.369 28.288 146.153C28.0357 146.068 27.771 146.025 27.5046 146.026C26.3057 146.026 25.3214 146.897 25.1474 148.062C23.9017 148.109 22.9174 149.113 22.9174 150.338C22.9174 151.604 23.8617 152.609 25.2746 152.609Z" fill="#09A1FF"/>
<path d="M134.901 48.6269L138.358 51.871" stroke="#D9D9D9" stroke-width="0.927537"/>
<path d="M129.265 49.1241L131.989 47.9875" stroke="#D9D9D9" stroke-width="0.927537"/>
<path d="M105.735 43.9114C105.735 45.0373 104.823 45.9499 103.697 45.9499C102.571 45.9499 101.658 45.0373 101.658 43.9114C101.658 42.7856 102.571 41.873 103.697 41.873C104.823 41.873 105.735 42.7856 105.735 43.9114ZM102.544 43.9114C102.544 44.5482 103.06 45.0643 103.697 45.0643C104.334 45.0643 104.85 44.5482 104.85 43.9114C104.85 43.2747 104.334 42.7586 103.697 42.7586C103.06 42.7586 102.544 43.2747 102.544 43.9114Z" fill="#D9D9D9"/>
<path d="M111.766 41.624C111.766 42.7499 110.853 43.6625 109.727 43.6625C108.602 43.6625 107.689 42.7499 107.689 41.624C107.689 40.4982 108.602 39.5855 109.727 39.5855C110.853 39.5855 111.766 40.4982 111.766 41.624ZM108.575 41.624C108.575 42.2607 109.091 42.7769 109.727 42.7769C110.364 42.7769 110.88 42.2607 110.88 41.624C110.88 40.9873 110.364 40.4712 109.727 40.4712C109.091 40.4712 108.575 40.9873 108.575 41.624Z" fill="#D9D9D9"/>
<path d="M117.692 50.8777C117.692 52.0035 116.78 52.9162 115.654 52.9162C114.528 52.9162 113.615 52.0035 113.615 50.8777C113.615 49.7519 114.528 48.8392 115.654 48.8392C116.78 48.8392 117.692 49.7519 117.692 50.8777ZM114.501 50.8777C114.501 51.5144 115.017 52.0305 115.654 52.0305C116.291 52.0305 116.807 51.5144 116.807 50.8777C116.807 50.241 116.291 49.7248 115.654 49.7248C115.017 49.7248 114.501 50.241 114.501 50.8777Z" fill="#D9D9D9"/>
<path d="M110.606 43.0385L114.726 49.3846M116.644 49.3846L120.67 44.1751M122.753 44.0567L126.4 48.2243" stroke="#D9D9D9" stroke-width="0.927537"/>
<path d="M123.723 42.7157C123.723 43.8416 122.81 44.7542 121.684 44.7542C120.559 44.7542 119.646 43.8416 119.646 42.7157C119.646 41.5899 120.559 40.6772 121.684 40.6772C122.81 40.6772 123.723 41.5899 123.723 42.7157ZM120.532 42.7157C120.532 43.3524 121.048 43.8686 121.684 43.8686C122.321 43.8686 122.837 43.3524 122.837 42.7157C122.837 42.079 122.321 41.5629 121.684 41.5629C121.048 41.5629 120.532 42.079 120.532 42.7157Z" fill="#D9D9D9"/>
<path d="M129.597 49.656C129.597 50.7818 128.685 51.6945 127.559 51.6945C126.433 51.6945 125.52 50.7818 125.52 49.656C125.52 48.5302 126.433 47.6175 127.559 47.6175C128.685 47.6175 129.597 48.5302 129.597 49.656ZM126.406 49.656C126.406 50.2927 126.922 50.8089 127.559 50.8089C128.196 50.8089 128.712 50.2927 128.712 49.656C128.712 49.0193 128.196 48.5032 127.559 48.5032C126.922 48.5032 126.406 49.0193 126.406 49.656Z" fill="#D9D9D9"/>
<path d="M135.758 47.4206C135.758 48.5464 134.845 49.4591 133.719 49.4591C132.594 49.4591 131.681 48.5464 131.681 47.4206C131.681 46.2947 132.594 45.3821 133.719 45.3821C134.845 45.3821 135.758 46.2947 135.758 47.4206ZM132.567 47.4206C132.567 48.0573 133.083 48.5734 133.719 48.5734C134.356 48.5734 134.872 48.0573 134.872 47.4206C134.872 46.7839 134.356 46.2677 133.719 46.2677C133.083 46.2677 132.567 46.7839 132.567 47.4206Z" fill="#D9D9D9"/>
<path d="M105.373 43.3226L108.096 42.2097" stroke="#D9D9D9" stroke-width="0.927537"/>
<path d="M141.658 53.1391C141.658 54.2649 140.746 55.1776 139.62 55.1776C138.494 55.1776 137.581 54.2649 137.581 53.1391C137.581 52.0133 138.494 51.1006 139.62 51.1006C140.746 51.1006 141.658 52.0133 141.658 53.1391ZM138.467 53.1391C138.467 53.7758 138.983 54.292 139.62 54.292C140.257 54.292 140.773 53.7758 140.773 53.1391C140.773 52.5024 140.257 51.9863 139.62 51.9863C138.983 51.9863 138.467 52.5024 138.467 53.1391Z" fill="#FF0084"/>
<rect x="101.658" y="106.818" width="2.90209" height="10.7699" rx="1.45105" fill="#D9D9D9"/>
<rect x="114.234" y="108.819" width="2.90209" height="8.76845" rx="1.45105" fill="#D9D9D9"/>
<rect x="120.361" y="108.819" width="2.90209" height="9.90503" rx="1.45105" fill="#D9D9D9"/>
<rect x="126.487" y="109.273" width="2.90209" height="9.90503" rx="1.45105" fill="#D9D9D9"/>
<rect x="132.614" y="108.251" width="2.90209" height="10.4733" rx="1.45105" fill="#D9D9D9"/>
<rect x="138.756" y="108.251" width="2.90209" height="10.4733" rx="1.45105" fill="#D9D9D9"/>
<circle cx="140.207" cy="115.661" r="1.45105" fill="#09A1FF"/>
</svg>
